<?xml version="1.0" encoding="UTF-8" standalone="no"?>
<!DOCTYPE svg PUBLIC "-//W3C//DTD SVG 1.1//EN"
 "http://www.w3.org/Graphics/SVG/1.1/DTD/svg11.dtd">
<!-- Generated by graphviz version 8.1.0 (20230707.2238)
 -->
<!-- Title: snakemake_dag Pages: 1 -->
<svg width="214pt" height="332pt"
 viewBox="0.00 0.00 214.00 332.00" xmlns="http://www.w3.org/2000/svg" xmlns:xlink="http://www.w3.org/1999/xlink">
<g id="graph0" class="graph" transform="scale(1 1) rotate(0) translate(4 328)">
<title>snakemake_dag</title>
<polygon fill="white" stroke="none" points="-4,4 -4,-328 210,-328 210,4 -4,4"/>
<!-- 0 -->
<g id="node1" class="node">
<title>0</title>
<path fill="none" stroke="#56d87b" stroke-width="2" d="M121,-36C121,-36 91,-36 91,-36 85,-36 79,-30 79,-24 79,-24 79,-12 79,-12 79,-6 85,0 91,0 91,0 121,0 121,0 127,0 133,-6 133,-12 133,-12 133,-24 133,-24 133,-30 127,-36 121,-36"/>
<text text-anchor="middle" x="106" y="-14.88" font-family="sans" font-size="10.00">results</text>
</g>
<!-- 1 -->
<g id="node2" class="node">
<title>1</title>
<path fill="none" stroke="#d8a456" stroke-width="2" d="M88,-108C88,-108 12,-108 12,-108 6,-108 0,-102 0,-96 0,-96 0,-84 0,-84 0,-78 6,-72 12,-72 12,-72 88,-72 88,-72 94,-72 100,-78 100,-84 100,-84 100,-96 100,-96 100,-102 94,-108 88,-108"/>
<text text-anchor="middle" x="50" y="-86.88" font-family="sans" font-size="10.00">annotate_contigs</text>
</g>
<!-- 1&#45;&gt;0 -->
<g id="edge1" class="edge">
<title>1&#45;&gt;0</title>
<path fill="none" stroke="grey" stroke-width="2" d="M64.13,-71.34C70.05,-63.93 77.09,-55.14 83.68,-46.9"/>
<polygon fill="grey" stroke="grey" stroke-width="2" points="87.16,-48.9 90.68,-38.9 81.7,-44.52 87.16,-48.9"/>
</g>
<!-- 2 -->
<g id="node3" class="node">
<title>2</title>
<path fill="none" stroke="#78d856" stroke-width="2" d="M125.62,-180C125.62,-180 86.38,-180 86.38,-180 80.38,-180 74.38,-174 74.38,-168 74.38,-168 74.38,-156 74.38,-156 74.38,-150 80.38,-144 86.38,-144 86.38,-144 125.62,-144 125.62,-144 131.62,-144 137.62,-150 137.62,-156 137.62,-156 137.62,-168 137.62,-168 137.62,-174 131.62,-180 125.62,-180"/>
<text text-anchor="middle" x="106" y="-158.88" font-family="sans" font-size="10.00">assembly</text>
</g>
<!-- 2&#45;&gt;1 -->
<g id="edge3" class="edge">
<title>2&#45;&gt;1</title>
<path fill="none" stroke="grey" stroke-width="2" d="M91.87,-143.34C85.95,-135.93 78.91,-127.14 72.32,-118.9"/>
<polygon fill="grey" stroke="grey" stroke-width="2" points="74.3,-116.52 65.32,-110.9 68.84,-120.9 74.3,-116.52"/>
</g>
<!-- 5 -->
<g id="node6" class="node">
<title>5</title>
<path fill="none" stroke="#56a2d8" stroke-width="2" d="M194,-108C194,-108 130,-108 130,-108 124,-108 118,-102 118,-96 118,-96 118,-84 118,-84 118,-78 124,-72 130,-72 130,-72 194,-72 194,-72 200,-72 206,-78 206,-84 206,-84 206,-96 206,-96 206,-102 200,-108 194,-108"/>
<text text-anchor="middle" x="162" y="-86.88" font-family="sans" font-size="10.00">virus_mapping</text>
</g>
<!-- 2&#45;&gt;5 -->
<g id="edge6" class="edge">
<title>2&#45;&gt;5</title>
<path fill="none" stroke="grey" stroke-width="2" d="M120.13,-143.34C126.05,-135.93 133.09,-127.14 139.68,-118.9"/>
<polygon fill="grey" stroke="grey" stroke-width="2" points="143.16,-120.9 146.68,-110.9 137.7,-116.52 143.16,-120.9"/>
</g>
<!-- 3 -->
<g id="node4" class="node">
<title>3</title>
<path fill="none" stroke="#d85656" stroke-width="2" d="M136.5,-252C136.5,-252 75.5,-252 75.5,-252 69.5,-252 63.5,-246 63.5,-240 63.5,-240 63.5,-228 63.5,-228 63.5,-222 69.5,-216 75.5,-216 75.5,-216 136.5,-216 136.5,-216 142.5,-216 148.5,-222 148.5,-228 148.5,-228 148.5,-240 148.5,-240 148.5,-246 142.5,-252 136.5,-252"/>
<text text-anchor="middle" x="106" y="-230.88" font-family="sans" font-size="10.00">host_mapping</text>
</g>
<!-- 3&#45;&gt;2 -->
<g id="edge4" class="edge">
<title>3&#45;&gt;2</title>
<path fill="none" stroke="grey" stroke-width="2" d="M106,-215.34C106,-208.75 106,-201.08 106,-193.67"/>
<polygon fill="grey" stroke="grey" stroke-width="2" points="109.5,-193.9 106,-183.9 102.5,-193.9 109.5,-193.9"/>
</g>
<!-- 4 -->
<g id="node5" class="node">
<title>4</title>
<path fill="none" stroke="#c6d856" stroke-width="2" d="M139.88,-324C139.88,-324 72.12,-324 72.12,-324 66.12,-324 60.12,-318 60.12,-312 60.12,-312 60.12,-300 60.12,-300 60.12,-294 66.12,-288 72.12,-288 72.12,-288 139.88,-288 139.88,-288 145.88,-288 151.88,-294 151.88,-300 151.88,-300 151.88,-312 151.88,-312 151.88,-318 145.88,-324 139.88,-324"/>
<text text-anchor="middle" x="106" y="-309.25" font-family="sans" font-size="10.00">quality_control</text>
<text text-anchor="middle" x="106" y="-296.5" font-family="sans" font-size="10.00">sample: prueba</text>
</g>
<!-- 4&#45;&gt;3 -->
<g id="edge5" class="edge">
<title>4&#45;&gt;3</title>
<path fill="none" stroke="grey" stroke-width="2" d="M106,-287.34C106,-280.75 106,-273.08 106,-265.67"/>
<polygon fill="grey" stroke="grey" stroke-width="2" points="109.5,-265.9 106,-255.9 102.5,-265.9 109.5,-265.9"/>
</g>
<!-- 5&#45;&gt;0 -->
<g id="edge2" class="edge">
<title>5&#45;&gt;0</title>
<path fill="none" stroke="grey" stroke-width="2" d="M147.87,-71.34C141.95,-63.93 134.91,-55.14 128.32,-46.9"/>
<polygon fill="grey" stroke="grey" stroke-width="2" points="130.3,-44.52 121.32,-38.9 124.84,-48.9 130.3,-44.52"/>
</g>
</g>
</svg>
