<?xml version="1.0" encoding="UTF-8" standalone="no"?>
<!DOCTYPE svg PUBLIC "-//W3C//DTD SVG 1.1//EN"
 "http://www.w3.org/Graphics/SVG/1.1/DTD/svg11.dtd">
<!-- Generated by graphviz version 2.43.0 (0)
 -->
<!-- Title: snakemake_dag Pages: 1 -->
<svg width="421pt" height="548pt"
 viewBox="0.00 0.00 421.00 548.00" xmlns="http://www.w3.org/2000/svg" xmlns:xlink="http://www.w3.org/1999/xlink">
<g id="graph0" class="graph" transform="scale(1 1) rotate(0) translate(4 544)">
<title>snakemake_dag</title>
<polygon fill="white" stroke="transparent" points="-4,4 -4,-544 417,-544 417,4 -4,4"/>
<!-- 0 -->
<g id="node1" class="node">
<title>0</title>
<path fill="none" stroke="#56d0d8" stroke-width="2" d="M98,-36C98,-36 49,-36 49,-36 43,-36 37,-30 37,-24 37,-24 37,-12 37,-12 37,-6 43,0 49,0 49,0 98,0 98,0 104,0 110,-6 110,-12 110,-12 110,-24 110,-24 110,-30 104,-36 98,-36"/>
<text text-anchor="middle" x="73.5" y="-15.5" font-family="sans" font-size="10.00">virus_count</text>
</g>
<!-- 1 -->
<g id="node2" class="node">
<title>1</title>
<path fill="none" stroke="#d87d56" stroke-width="2" d="M109,-324C109,-324 12,-324 12,-324 6,-324 0,-318 0,-312 0,-312 0,-300 0,-300 0,-294 6,-288 12,-288 12,-288 109,-288 109,-288 115,-288 121,-294 121,-300 121,-300 121,-312 121,-312 121,-318 115,-324 109,-324"/>
<text text-anchor="middle" x="60.5" y="-303.5" font-family="sans" font-size="10.00">virus_mapping_reads</text>
</g>
<!-- 1&#45;&gt;0 -->
<g id="edge1" class="edge">
<title>1&#45;&gt;0</title>
<path fill="none" stroke="grey" stroke-width="2" d="M61.27,-287.97C63.44,-240.29 69.58,-105.18 72.24,-46.63"/>
<polygon fill="grey" stroke="grey" stroke-width="2" points="75.76,-46.46 72.71,-36.31 68.76,-46.14 75.76,-46.46"/>
</g>
<!-- 2 -->
<g id="node3" class="node">
<title>2</title>
<path fill="none" stroke="#8fd856" stroke-width="2" d="M155.5,-468C155.5,-468 93.5,-468 93.5,-468 87.5,-468 81.5,-462 81.5,-456 81.5,-456 81.5,-444 81.5,-444 81.5,-438 87.5,-432 93.5,-432 93.5,-432 155.5,-432 155.5,-432 161.5,-432 167.5,-438 167.5,-444 167.5,-444 167.5,-456 167.5,-456 167.5,-462 161.5,-468 155.5,-468"/>
<text text-anchor="middle" x="124.5" y="-447.5" font-family="sans" font-size="10.00">host_mapping</text>
</g>
<!-- 2&#45;&gt;1 -->
<g id="edge4" class="edge">
<title>2&#45;&gt;1</title>
<path fill="none" stroke="grey" stroke-width="2" d="M116.78,-431.87C105.78,-407.46 85.48,-362.43 72.5,-333.64"/>
<polygon fill="grey" stroke="grey" stroke-width="2" points="75.55,-331.87 68.25,-324.19 69.17,-334.74 75.55,-331.87"/>
</g>
<!-- 6 -->
<g id="node7" class="node">
<title>6</title>
<path fill="none" stroke="#d8a456" stroke-width="2" d="M204.5,-396C204.5,-396 164.5,-396 164.5,-396 158.5,-396 152.5,-390 152.5,-384 152.5,-384 152.5,-372 152.5,-372 152.5,-366 158.5,-360 164.5,-360 164.5,-360 204.5,-360 204.5,-360 210.5,-360 216.5,-366 216.5,-372 216.5,-372 216.5,-384 216.5,-384 216.5,-390 210.5,-396 204.5,-396"/>
<text text-anchor="middle" x="184.5" y="-375.5" font-family="sans" font-size="10.00">assembly</text>
</g>
<!-- 2&#45;&gt;6 -->
<g id="edge9" class="edge">
<title>2&#45;&gt;6</title>
<path fill="none" stroke="grey" stroke-width="2" d="M139.33,-431.7C146.52,-423.3 155.3,-413.07 163.19,-403.86"/>
<polygon fill="grey" stroke="grey" stroke-width="2" points="165.99,-405.97 169.84,-396.1 160.67,-401.42 165.99,-405.97"/>
</g>
<!-- 3 -->
<g id="node4" class="node">
<title>3</title>
<path fill="none" stroke="#b6d856" stroke-width="2" d="M160,-540C160,-540 89,-540 89,-540 83,-540 77,-534 77,-528 77,-528 77,-516 77,-516 77,-510 83,-504 89,-504 89,-504 160,-504 160,-504 166,-504 172,-510 172,-516 172,-516 172,-528 172,-528 172,-534 166,-540 160,-540"/>
<text text-anchor="middle" x="124.5" y="-525" font-family="sans" font-size="10.00">quality_control</text>
<text text-anchor="middle" x="124.5" y="-514" font-family="sans" font-size="10.00">sample: sample</text>
</g>
<!-- 3&#45;&gt;2 -->
<g id="edge5" class="edge">
<title>3&#45;&gt;2</title>
<path fill="none" stroke="grey" stroke-width="2" d="M124.5,-503.7C124.5,-495.98 124.5,-486.71 124.5,-478.11"/>
<polygon fill="grey" stroke="grey" stroke-width="2" points="128,-478.1 124.5,-468.1 121,-478.1 128,-478.1"/>
</g>
<!-- 4 -->
<g id="node5" class="node">
<title>4</title>
<path fill="none" stroke="#56d86b" stroke-width="2" d="M211.5,-180C211.5,-180 171.5,-180 171.5,-180 165.5,-180 159.5,-174 159.5,-168 159.5,-168 159.5,-156 159.5,-156 159.5,-150 165.5,-144 171.5,-144 171.5,-144 211.5,-144 211.5,-144 217.5,-144 223.5,-150 223.5,-156 223.5,-156 223.5,-168 223.5,-168 223.5,-174 217.5,-180 211.5,-180"/>
<text text-anchor="middle" x="191.5" y="-159.5" font-family="sans" font-size="10.00">virus_find</text>
</g>
<!-- 4&#45;&gt;0 -->
<g id="edge2" class="edge">
<title>4&#45;&gt;0</title>
<path fill="none" stroke="grey" stroke-width="2" d="M159.05,-151.65C136.97,-143.62 108.9,-129.81 92.5,-108 79.18,-90.29 74.75,-65.27 73.47,-46.27"/>
<polygon fill="grey" stroke="grey" stroke-width="2" points="76.96,-45.99 73.04,-36.15 69.97,-46.28 76.96,-45.99"/>
</g>
<!-- 8 -->
<g id="node9" class="node">
<title>8</title>
<path fill="none" stroke="#56d892" stroke-width="2" d="M223.5,-108C223.5,-108 113.5,-108 113.5,-108 107.5,-108 101.5,-102 101.5,-96 101.5,-96 101.5,-84 101.5,-84 101.5,-78 107.5,-72 113.5,-72 113.5,-72 223.5,-72 223.5,-72 229.5,-72 235.5,-78 235.5,-84 235.5,-84 235.5,-96 235.5,-96 235.5,-102 229.5,-108 223.5,-108"/>
<text text-anchor="middle" x="168.5" y="-87.5" font-family="sans" font-size="10.00">virus_genome_annotate</text>
</g>
<!-- 4&#45;&gt;8 -->
<g id="edge11" class="edge">
<title>4&#45;&gt;8</title>
<path fill="none" stroke="grey" stroke-width="2" d="M185.81,-143.7C183.25,-135.9 180.17,-126.51 177.32,-117.83"/>
<polygon fill="grey" stroke="grey" stroke-width="2" points="180.57,-116.51 174.12,-108.1 173.92,-118.7 180.57,-116.51"/>
</g>
<!-- 10 -->
<g id="node11" class="node">
<title>10</title>
<path fill="none" stroke="#56d8b9" stroke-width="2" d="M379.5,-108C379.5,-108 349.5,-108 349.5,-108 343.5,-108 337.5,-102 337.5,-96 337.5,-96 337.5,-84 337.5,-84 337.5,-78 343.5,-72 349.5,-72 349.5,-72 379.5,-72 379.5,-72 385.5,-72 391.5,-78 391.5,-84 391.5,-84 391.5,-96 391.5,-96 391.5,-102 385.5,-108 379.5,-108"/>
<text text-anchor="middle" x="364.5" y="-87.5" font-family="sans" font-size="10.00">int_find</text>
</g>
<!-- 4&#45;&gt;10 -->
<g id="edge15" class="edge">
<title>4&#45;&gt;10</title>
<path fill="none" stroke="grey" stroke-width="2" d="M223.6,-149.33C249.57,-139.72 287.23,-125.42 328.13,-108.02"/>
<polygon fill="grey" stroke="grey" stroke-width="2" points="329.66,-111.18 337.47,-104.02 326.9,-104.74 329.66,-111.18"/>
</g>
<!-- 12 -->
<g id="node13" class="node">
<title>12</title>
<path fill="none" stroke="#567bd8" stroke-width="2" d="M307,-108C307,-108 266,-108 266,-108 260,-108 254,-102 254,-96 254,-96 254,-84 254,-84 254,-78 260,-72 266,-72 266,-72 307,-72 307,-72 313,-72 319,-78 319,-84 319,-84 319,-96 319,-96 319,-102 313,-108 307,-108"/>
<text text-anchor="middle" x="286.5" y="-87.5" font-family="sans" font-size="10.00">plot_virus</text>
</g>
<!-- 4&#45;&gt;12 -->
<g id="edge17" class="edge">
<title>4&#45;&gt;12</title>
<path fill="none" stroke="grey" stroke-width="2" d="M214.98,-143.7C227.06,-134.8 241.95,-123.82 255.02,-114.2"/>
<polygon fill="grey" stroke="grey" stroke-width="2" points="257.31,-116.85 263.29,-108.1 253.16,-111.22 257.31,-116.85"/>
</g>
<!-- 5 -->
<g id="node6" class="node">
<title>5</title>
<path fill="none" stroke="#d8cb56" stroke-width="2" d="M253,-324C253,-324 176,-324 176,-324 170,-324 164,-318 164,-312 164,-312 164,-300 164,-300 164,-294 170,-288 176,-288 176,-288 253,-288 253,-288 259,-288 265,-294 265,-300 265,-300 265,-312 265,-312 265,-318 259,-324 253,-324"/>
<text text-anchor="middle" x="214.5" y="-303.5" font-family="sans" font-size="10.00">annotate_contigs</text>
</g>
<!-- 5&#45;&gt;4 -->
<g id="edge6" class="edge">
<title>5&#45;&gt;4</title>
<path fill="none" stroke="grey" stroke-width="2" d="M190.02,-287.77C179.1,-278.56 167.38,-266.19 161.5,-252 152.89,-231.22 162.27,-206.99 172.75,-189.06"/>
<polygon fill="grey" stroke="grey" stroke-width="2" points="175.89,-190.65 178.25,-180.32 169.97,-186.92 175.89,-190.65"/>
</g>
<!-- 7 -->
<g id="node8" class="node">
<title>7</title>
<path fill="none" stroke="#d85656" stroke-width="2" d="M247,-252C247,-252 182,-252 182,-252 176,-252 170,-246 170,-240 170,-240 170,-228 170,-228 170,-222 176,-216 182,-216 182,-216 247,-216 247,-216 253,-216 259,-222 259,-228 259,-228 259,-240 259,-240 259,-246 253,-252 247,-252"/>
<text text-anchor="middle" x="214.5" y="-231.5" font-family="sans" font-size="10.00">virus_mapping</text>
</g>
<!-- 5&#45;&gt;7 -->
<g id="edge10" class="edge">
<title>5&#45;&gt;7</title>
<path fill="none" stroke="grey" stroke-width="2" d="M214.5,-287.7C214.5,-279.98 214.5,-270.71 214.5,-262.11"/>
<polygon fill="grey" stroke="grey" stroke-width="2" points="218,-262.1 214.5,-252.1 211,-262.1 218,-262.1"/>
</g>
<!-- 5&#45;&gt;10 -->
<g id="edge13" class="edge">
<title>5&#45;&gt;10</title>
<path fill="none" stroke="grey" stroke-width="2" d="M236.01,-287.96C246.97,-278.36 259.77,-265.6 268.5,-252 296.07,-209.05 279.36,-186.57 307.5,-144 314.6,-133.26 324.32,-123.17 333.72,-114.73"/>
<polygon fill="grey" stroke="grey" stroke-width="2" points="336.17,-117.23 341.47,-108.06 331.61,-111.93 336.17,-117.23"/>
</g>
<!-- 11 -->
<g id="node12" class="node">
<title>11</title>
<path fill="none" stroke="#56a9d8" stroke-width="2" d="M401,-180C401,-180 328,-180 328,-180 322,-180 316,-174 316,-168 316,-168 316,-156 316,-156 316,-150 322,-144 328,-144 328,-144 401,-144 401,-144 407,-144 413,-150 413,-156 413,-156 413,-168 413,-168 413,-174 407,-180 401,-180"/>
<text text-anchor="middle" x="364.5" y="-159.5" font-family="sans" font-size="10.00">host_mapping_2</text>
</g>
<!-- 5&#45;&gt;11 -->
<g id="edge16" class="edge">
<title>5&#45;&gt;11</title>
<path fill="none" stroke="grey" stroke-width="2" d="M249.79,-287.82C266.57,-278.61 286.24,-266.24 301.5,-252 321.24,-233.57 338.54,-208.05 350,-189.05"/>
<polygon fill="grey" stroke="grey" stroke-width="2" points="353.08,-190.71 355.13,-180.31 347.05,-187.16 353.08,-190.71"/>
</g>
<!-- 6&#45;&gt;5 -->
<g id="edge8" class="edge">
<title>6&#45;&gt;5</title>
<path fill="none" stroke="grey" stroke-width="2" d="M191.92,-359.7C195.29,-351.81 199.37,-342.3 203.12,-333.55"/>
<polygon fill="grey" stroke="grey" stroke-width="2" points="206.45,-334.67 207.17,-324.1 200.01,-331.92 206.45,-334.67"/>
</g>
<!-- 7&#45;&gt;4 -->
<g id="edge7" class="edge">
<title>7&#45;&gt;4</title>
<path fill="none" stroke="grey" stroke-width="2" d="M208.81,-215.7C206.25,-207.9 203.17,-198.51 200.32,-189.83"/>
<polygon fill="grey" stroke="grey" stroke-width="2" points="203.57,-188.51 197.12,-180.1 196.92,-190.7 203.57,-188.51"/>
</g>
<!-- 8&#45;&gt;0 -->
<g id="edge3" class="edge">
<title>8&#45;&gt;0</title>
<path fill="none" stroke="grey" stroke-width="2" d="M145.02,-71.7C132.94,-62.8 118.05,-51.82 104.98,-42.2"/>
<polygon fill="grey" stroke="grey" stroke-width="2" points="106.84,-39.22 96.71,-36.1 102.69,-44.85 106.84,-39.22"/>
</g>
<!-- 9 -->
<g id="node10" class="node">
<title>9</title>
<path fill="none" stroke="#68d856" stroke-width="2" d="M379.5,-36C379.5,-36 349.5,-36 349.5,-36 343.5,-36 337.5,-30 337.5,-24 337.5,-24 337.5,-12 337.5,-12 337.5,-6 343.5,0 349.5,0 349.5,0 379.5,0 379.5,0 385.5,0 391.5,-6 391.5,-12 391.5,-12 391.5,-24 391.5,-24 391.5,-30 385.5,-36 379.5,-36"/>
<text text-anchor="middle" x="364.5" y="-15.5" font-family="sans" font-size="10.00">plot_int</text>
</g>
<!-- 10&#45;&gt;9 -->
<g id="edge12" class="edge">
<title>10&#45;&gt;9</title>
<path fill="none" stroke="grey" stroke-width="2" d="M364.5,-71.7C364.5,-63.98 364.5,-54.71 364.5,-46.11"/>
<polygon fill="grey" stroke="grey" stroke-width="2" points="368,-46.1 364.5,-36.1 361,-46.1 368,-46.1"/>
</g>
<!-- 11&#45;&gt;10 -->
<g id="edge14" class="edge">
<title>11&#45;&gt;10</title>
<path fill="none" stroke="grey" stroke-width="2" d="M364.5,-143.7C364.5,-135.98 364.5,-126.71 364.5,-118.11"/>
<polygon fill="grey" stroke="grey" stroke-width="2" points="368,-118.1 364.5,-108.1 361,-118.1 368,-118.1"/>
</g>
</g>
</svg>
