<?xml version="1.0" encoding="UTF-8" standalone="no"?>
<!DOCTYPE svg PUBLIC "-//W3C//DTD SVG 1.1//EN"
 "http://www.w3.org/Graphics/SVG/1.1/DTD/svg11.dtd">
<!-- Generated by graphviz version 8.1.0 (20230707.2238)
 -->
<!-- Title: snakemake_dag Pages: 1 -->
<svg width="263pt" height="548pt"
 viewBox="0.00 0.00 262.54 548.00" xmlns="http://www.w3.org/2000/svg" xmlns:xlink="http://www.w3.org/1999/xlink">
<g id="graph0" class="graph" transform="scale(1 1) rotate(0) translate(4 544)">
<title>snakemake_dag</title>
<polygon fill="white" stroke="none" points="-4,4 -4,-544 258.54,-544 258.54,4 -4,4"/>
<!-- 0 -->
<g id="node1" class="node">
<title>0</title>
<path fill="none" stroke="#d88d56" stroke-width="2" d="M70.91,-108C70.91,-108 21.91,-108 21.91,-108 15.91,-108 9.91,-102 9.91,-96 9.91,-96 9.91,-84 9.91,-84 9.91,-78 15.91,-72 21.91,-72 21.91,-72 70.91,-72 70.91,-72 76.91,-72 82.91,-78 82.91,-84 82.91,-84 82.91,-96 82.91,-96 82.91,-102 76.91,-108 70.91,-108"/>
<text text-anchor="middle" x="46.41" y="-86.88" font-family="sans" font-size="10.00">plot_results</text>
</g>
<!-- 1 -->
<g id="node2" class="node">
<title>1</title>
<path fill="none" stroke="#d85656" stroke-width="2" d="M69.41,-180C69.41,-180 39.41,-180 39.41,-180 33.41,-180 27.41,-174 27.41,-168 27.41,-168 27.41,-156 27.41,-156 27.41,-150 33.41,-144 39.41,-144 39.41,-144 69.41,-144 69.41,-144 75.41,-144 81.41,-150 81.41,-156 81.41,-156 81.41,-168 81.41,-168 81.41,-174 75.41,-180 69.41,-180"/>
<text text-anchor="middle" x="54.41" y="-158.88" font-family="sans" font-size="10.00">results</text>
</g>
<!-- 1&#45;&gt;0 -->
<g id="edge1" class="edge">
<title>1&#45;&gt;0</title>
<path fill="none" stroke="grey" stroke-width="2" d="M52.39,-143.34C51.64,-136.75 50.76,-129.08 49.92,-121.67"/>
<polygon fill="grey" stroke="grey" stroke-width="2" points="53.07,-121.44 48.46,-111.9 46.12,-122.23 53.07,-121.44"/>
</g>
<!-- 8 -->
<g id="node9" class="node">
<title>8</title>
<path fill="none" stroke="#88d856" stroke-width="2" d="M155.91,-108C155.91,-108 112.91,-108 112.91,-108 106.91,-108 100.91,-102 100.91,-96 100.91,-96 100.91,-84 100.91,-84 100.91,-78 106.91,-72 112.91,-72 112.91,-72 155.91,-72 155.91,-72 161.91,-72 167.91,-78 167.91,-84 167.91,-84 167.91,-96 167.91,-96 167.91,-102 161.91,-108 155.91,-108"/>
<text text-anchor="middle" x="134.41" y="-86.88" font-family="sans" font-size="10.00">results_int</text>
</g>
<!-- 1&#45;&gt;8 -->
<g id="edge11" class="edge">
<title>1&#45;&gt;8</title>
<path fill="none" stroke="grey" stroke-width="2" d="M74.6,-143.34C83.62,-135.44 94.45,-125.96 104.4,-117.26"/>
<polygon fill="grey" stroke="grey" stroke-width="2" points="106.73,-119.12 111.95,-109.9 102.12,-113.85 106.73,-119.12"/>
</g>
<!-- 2 -->
<g id="node3" class="node">
<title>2</title>
<path fill="none" stroke="#56d88a" stroke-width="2" d="M132.41,-324C132.41,-324 56.41,-324 56.41,-324 50.41,-324 44.41,-318 44.41,-312 44.41,-312 44.41,-300 44.41,-300 44.41,-294 50.41,-288 56.41,-288 56.41,-288 132.41,-288 132.41,-288 138.41,-288 144.41,-294 144.41,-300 144.41,-300 144.41,-312 144.41,-312 144.41,-318 138.41,-324 132.41,-324"/>
<text text-anchor="middle" x="94.41" y="-302.88" font-family="sans" font-size="10.00">annotate_contigs</text>
</g>
<!-- 2&#45;&gt;1 -->
<g id="edge2" class="edge">
<title>2&#45;&gt;1</title>
<path fill="none" stroke="grey" stroke-width="2" d="M44.97,-287.11C29.51,-278.91 14.21,-267.48 5.41,-252 -2.5,-238.09 -0.42,-230.9 5.41,-216 9.17,-206.4 15.57,-197.5 22.53,-189.83"/>
<polygon fill="grey" stroke="grey" stroke-width="2" points="24.92,-192.39 29.49,-182.83 19.95,-187.45 24.92,-192.39"/>
</g>
<!-- 6 -->
<g id="node7" class="node">
<title>6</title>
<path fill="none" stroke="#bed856" stroke-width="2" d="M90.41,-252C90.41,-252 26.41,-252 26.41,-252 20.41,-252 14.41,-246 14.41,-240 14.41,-240 14.41,-228 14.41,-228 14.41,-222 20.41,-216 26.41,-216 26.41,-216 90.41,-216 90.41,-216 96.41,-216 102.41,-222 102.41,-228 102.41,-228 102.41,-240 102.41,-240 102.41,-246 96.41,-252 90.41,-252"/>
<text text-anchor="middle" x="58.41" y="-230.88" font-family="sans" font-size="10.00">virus_mapping</text>
</g>
<!-- 2&#45;&gt;6 -->
<g id="edge7" class="edge">
<title>2&#45;&gt;6</title>
<path fill="none" stroke="grey" stroke-width="2" d="M85.33,-287.34C81.73,-280.34 77.5,-272.12 73.47,-264.28"/>
<polygon fill="grey" stroke="grey" stroke-width="2" points="76.3,-262.19 68.62,-254.9 70.08,-265.4 76.3,-262.19"/>
</g>
<!-- 2&#45;&gt;8 -->
<g id="edge9" class="edge">
<title>2&#45;&gt;8</title>
<path fill="none" stroke="grey" stroke-width="2" d="M101,-287.06C104.52,-276.89 108.68,-263.87 111.41,-252 121.77,-206.98 128.28,-153.73 131.63,-121.17"/>
<polygon fill="grey" stroke="grey" stroke-width="2" points="135.38,-121.86 132.88,-111.57 128.41,-121.18 135.38,-121.86"/>
</g>
<!-- 9 -->
<g id="node10" class="node">
<title>9</title>
<path fill="none" stroke="#56d8c1" stroke-width="2" d="M242.54,-180C242.54,-180 170.29,-180 170.29,-180 164.29,-180 158.29,-174 158.29,-168 158.29,-168 158.29,-156 158.29,-156 158.29,-150 164.29,-144 170.29,-144 170.29,-144 242.54,-144 242.54,-144 248.54,-144 254.54,-150 254.54,-156 254.54,-156 254.54,-168 254.54,-168 254.54,-174 248.54,-180 242.54,-180"/>
<text text-anchor="middle" x="206.41" y="-158.88" font-family="sans" font-size="10.00">host_mapping_2</text>
</g>
<!-- 2&#45;&gt;9 -->
<g id="edge12" class="edge">
<title>2&#45;&gt;9</title>
<path fill="none" stroke="grey" stroke-width="2" d="M112.22,-287.45C122.09,-277.4 134.36,-264.37 144.41,-252 160.1,-232.7 176.1,-209.62 187.92,-191.81"/>
<polygon fill="grey" stroke="grey" stroke-width="2" points="191.48,-193.23 194.03,-182.95 185.62,-189.4 191.48,-193.23"/>
</g>
<!-- 3 -->
<g id="node4" class="node">
<title>3</title>
<path fill="none" stroke="#59d856" stroke-width="2" d="M114.04,-396C114.04,-396 74.79,-396 74.79,-396 68.79,-396 62.79,-390 62.79,-384 62.79,-384 62.79,-372 62.79,-372 62.79,-366 68.79,-360 74.79,-360 74.79,-360 114.04,-360 114.04,-360 120.04,-360 126.04,-366 126.04,-372 126.04,-372 126.04,-384 126.04,-384 126.04,-390 120.04,-396 114.04,-396"/>
<text text-anchor="middle" x="94.41" y="-374.88" font-family="sans" font-size="10.00">assembly</text>
</g>
<!-- 3&#45;&gt;2 -->
<g id="edge4" class="edge">
<title>3&#45;&gt;2</title>
<path fill="none" stroke="grey" stroke-width="2" d="M94.41,-359.34C94.41,-352.75 94.41,-345.08 94.41,-337.67"/>
<polygon fill="grey" stroke="grey" stroke-width="2" points="97.91,-337.9 94.41,-327.9 90.91,-337.9 97.91,-337.9"/>
</g>
<!-- 4 -->
<g id="node5" class="node">
<title>4</title>
<path fill="none" stroke="#d8bc56" stroke-width="2" d="M124.91,-468C124.91,-468 63.91,-468 63.91,-468 57.91,-468 51.91,-462 51.91,-456 51.91,-456 51.91,-444 51.91,-444 51.91,-438 57.91,-432 63.91,-432 63.91,-432 124.91,-432 124.91,-432 130.91,-432 136.91,-438 136.91,-444 136.91,-444 136.91,-456 136.91,-456 136.91,-462 130.91,-468 124.91,-468"/>
<text text-anchor="middle" x="94.41" y="-446.88" font-family="sans" font-size="10.00">host_mapping</text>
</g>
<!-- 4&#45;&gt;3 -->
<g id="edge5" class="edge">
<title>4&#45;&gt;3</title>
<path fill="none" stroke="grey" stroke-width="2" d="M94.41,-431.34C94.41,-424.75 94.41,-417.08 94.41,-409.67"/>
<polygon fill="grey" stroke="grey" stroke-width="2" points="97.91,-409.9 94.41,-399.9 90.91,-409.9 97.91,-409.9"/>
</g>
<!-- 5 -->
<g id="node6" class="node">
<title>5</title>
<path fill="none" stroke="#56c1d8" stroke-width="2" d="M129.41,-540C129.41,-540 59.41,-540 59.41,-540 53.41,-540 47.41,-534 47.41,-528 47.41,-528 47.41,-516 47.41,-516 47.41,-510 53.41,-504 59.41,-504 59.41,-504 129.41,-504 129.41,-504 135.41,-504 141.41,-510 141.41,-516 141.41,-516 141.41,-528 141.41,-528 141.41,-534 135.41,-540 129.41,-540"/>
<text text-anchor="middle" x="94.41" y="-525.25" font-family="sans" font-size="10.00">quality_control</text>
<text text-anchor="middle" x="94.41" y="-512.5" font-family="sans" font-size="10.00">sample: sample</text>
</g>
<!-- 5&#45;&gt;4 -->
<g id="edge6" class="edge">
<title>5&#45;&gt;4</title>
<path fill="none" stroke="grey" stroke-width="2" d="M94.41,-503.34C94.41,-496.75 94.41,-489.08 94.41,-481.67"/>
<polygon fill="grey" stroke="grey" stroke-width="2" points="97.91,-481.9 94.41,-471.9 90.91,-481.9 97.91,-481.9"/>
</g>
<!-- 6&#45;&gt;1 -->
<g id="edge3" class="edge">
<title>6&#45;&gt;1</title>
<path fill="none" stroke="grey" stroke-width="2" d="M57.4,-215.34C57.03,-208.75 56.59,-201.08 56.16,-193.67"/>
<polygon fill="grey" stroke="grey" stroke-width="2" points="59.5,-193.69 55.43,-183.9 52.51,-194.09 59.5,-193.69"/>
</g>
<!-- 7 -->
<g id="node8" class="node">
<title>7</title>
<path fill="none" stroke="#568ad8" stroke-width="2" d="M149.41,-36C149.41,-36 119.41,-36 119.41,-36 113.41,-36 107.41,-30 107.41,-24 107.41,-24 107.41,-12 107.41,-12 107.41,-6 113.41,0 119.41,0 119.41,0 149.41,0 149.41,0 155.41,0 161.41,-6 161.41,-12 161.41,-12 161.41,-24 161.41,-24 161.41,-30 155.41,-36 149.41,-36"/>
<text text-anchor="middle" x="134.41" y="-14.88" font-family="sans" font-size="10.00">plot_int</text>
</g>
<!-- 8&#45;&gt;7 -->
<g id="edge8" class="edge">
<title>8&#45;&gt;7</title>
<path fill="none" stroke="grey" stroke-width="2" d="M134.41,-71.34C134.41,-64.75 134.41,-57.08 134.41,-49.67"/>
<polygon fill="grey" stroke="grey" stroke-width="2" points="137.91,-49.9 134.41,-39.9 130.91,-49.9 137.91,-49.9"/>
</g>
<!-- 9&#45;&gt;8 -->
<g id="edge10" class="edge">
<title>9&#45;&gt;8</title>
<path fill="none" stroke="grey" stroke-width="2" d="M188.24,-143.34C180.29,-135.6 170.78,-126.36 161.98,-117.81"/>
<polygon fill="grey" stroke="grey" stroke-width="2" points="164.43,-115.36 154.82,-110.9 159.55,-120.38 164.43,-115.36"/>
</g>
</g>
</svg>
