<?xml version="1.0" encoding="UTF-8" standalone="no"?>
<!DOCTYPE svg PUBLIC "-//W3C//DTD SVG 1.1//EN"
 "http://www.w3.org/Graphics/SVG/1.1/DTD/svg11.dtd">
<!-- Generated by graphviz version 2.43.0 (0)
 -->
<!-- Title: snakemake_dag Pages: 1 -->
<svg width="220pt" height="548pt"
 viewBox="0.00 0.00 219.75 548.00" xmlns="http://www.w3.org/2000/svg" xmlns:xlink="http://www.w3.org/1999/xlink">
<g id="graph0" class="graph" transform="scale(1 1) rotate(0) translate(4 544)">
<title>snakemake_dag</title>
<polygon fill="white" stroke="transparent" points="-4,4 -4,-544 215.75,-544 215.75,4 -4,4"/>
<!-- 0 -->
<g id="node1" class="node">
<title>0</title>
<path fill="none" stroke="#56d88a" stroke-width="2" d="M77.25,-36C77.25,-36 47.25,-36 47.25,-36 41.25,-36 35.25,-30 35.25,-24 35.25,-24 35.25,-12 35.25,-12 35.25,-6 41.25,0 47.25,0 47.25,0 77.25,0 77.25,0 83.25,0 89.25,-6 89.25,-12 89.25,-12 89.25,-24 89.25,-24 89.25,-30 83.25,-36 77.25,-36"/>
<text text-anchor="middle" x="62.25" y="-15.5" font-family="sans" font-size="10.00">plot_int</text>
</g>
<!-- 1 -->
<g id="node2" class="node">
<title>1</title>
<path fill="none" stroke="#d85656" stroke-width="2" d="M79.25,-108C79.25,-108 45.25,-108 45.25,-108 39.25,-108 33.25,-102 33.25,-96 33.25,-96 33.25,-84 33.25,-84 33.25,-78 39.25,-72 45.25,-72 45.25,-72 79.25,-72 79.25,-72 85.25,-72 91.25,-78 91.25,-84 91.25,-84 91.25,-96 91.25,-96 91.25,-102 85.25,-108 79.25,-108"/>
<text text-anchor="middle" x="62.25" y="-87.5" font-family="sans" font-size="10.00">find__int</text>
</g>
<!-- 1&#45;&gt;0 -->
<g id="edge1" class="edge">
<title>1&#45;&gt;0</title>
<path fill="none" stroke="grey" stroke-width="2" d="M62.25,-71.7C62.25,-63.98 62.25,-54.71 62.25,-46.11"/>
<polygon fill="grey" stroke="grey" stroke-width="2" points="65.75,-46.1 62.25,-36.1 58.75,-46.1 65.75,-46.1"/>
</g>
<!-- 2 -->
<g id="node3" class="node">
<title>2</title>
<path fill="none" stroke="#568ad8" stroke-width="2" d="M113.75,-324C113.75,-324 36.75,-324 36.75,-324 30.75,-324 24.75,-318 24.75,-312 24.75,-312 24.75,-300 24.75,-300 24.75,-294 30.75,-288 36.75,-288 36.75,-288 113.75,-288 113.75,-288 119.75,-288 125.75,-294 125.75,-300 125.75,-300 125.75,-312 125.75,-312 125.75,-318 119.75,-324 113.75,-324"/>
<text text-anchor="middle" x="75.25" y="-303.5" font-family="sans" font-size="10.00">annotate_contigs</text>
</g>
<!-- 2&#45;&gt;1 -->
<g id="edge2" class="edge">
<title>2&#45;&gt;1</title>
<path fill="none" stroke="grey" stroke-width="2" d="M61.48,-287.66C44.15,-264.64 15.34,-221.99 4.25,-180 0.16,-164.53 -2.21,-158.64 4.25,-144 9.24,-132.69 17.96,-122.74 27.15,-114.62"/>
<polygon fill="grey" stroke="grey" stroke-width="2" points="29.42,-117.28 34.91,-108.23 24.97,-111.88 29.42,-117.28"/>
</g>
<!-- 6 -->
<g id="node7" class="node">
<title>6</title>
<path fill="none" stroke="#56d8c1" stroke-width="2" d="M98.75,-180C98.75,-180 25.75,-180 25.75,-180 19.75,-180 13.75,-174 13.75,-168 13.75,-168 13.75,-156 13.75,-156 13.75,-150 19.75,-144 25.75,-144 25.75,-144 98.75,-144 98.75,-144 104.75,-144 110.75,-150 110.75,-156 110.75,-156 110.75,-168 110.75,-168 110.75,-174 104.75,-180 98.75,-180"/>
<text text-anchor="middle" x="62.25" y="-159.5" font-family="sans" font-size="10.00">host_mapping_2</text>
</g>
<!-- 2&#45;&gt;6 -->
<g id="edge8" class="edge">
<title>2&#45;&gt;6</title>
<path fill="none" stroke="grey" stroke-width="2" d="M73.68,-287.87C71.46,-263.67 67.39,-219.21 64.76,-190.39"/>
<polygon fill="grey" stroke="grey" stroke-width="2" points="68.22,-189.83 63.82,-180.19 61.25,-190.47 68.22,-189.83"/>
</g>
<!-- 7 -->
<g id="node8" class="node">
<title>7</title>
<path fill="none" stroke="#d8bc56" stroke-width="2" d="M181.25,-180C181.25,-180 141.25,-180 141.25,-180 135.25,-180 129.25,-174 129.25,-168 129.25,-168 129.25,-156 129.25,-156 129.25,-150 135.25,-144 141.25,-144 141.25,-144 181.25,-144 181.25,-144 187.25,-144 193.25,-150 193.25,-156 193.25,-156 193.25,-168 193.25,-168 193.25,-174 187.25,-180 181.25,-180"/>
<text text-anchor="middle" x="161.25" y="-159.5" font-family="sans" font-size="10.00">virus_find</text>
</g>
<!-- 2&#45;&gt;7 -->
<g id="edge9" class="edge">
<title>2&#45;&gt;7</title>
<path fill="none" stroke="grey" stroke-width="2" d="M80.69,-287.77C86.97,-269.2 98.39,-239.2 113.25,-216 119.61,-206.08 127.85,-196.22 135.71,-187.75"/>
<polygon fill="grey" stroke="grey" stroke-width="2" points="138.36,-190.05 142.75,-180.4 133.3,-185.2 138.36,-190.05"/>
</g>
<!-- 8 -->
<g id="node9" class="node">
<title>8</title>
<path fill="none" stroke="#56c1d8" stroke-width="2" d="M199.75,-252C199.75,-252 134.75,-252 134.75,-252 128.75,-252 122.75,-246 122.75,-240 122.75,-240 122.75,-228 122.75,-228 122.75,-222 128.75,-216 134.75,-216 134.75,-216 199.75,-216 199.75,-216 205.75,-216 211.75,-222 211.75,-228 211.75,-228 211.75,-240 211.75,-240 211.75,-246 205.75,-252 199.75,-252"/>
<text text-anchor="middle" x="167.25" y="-231.5" font-family="sans" font-size="10.00">virus_mapping</text>
</g>
<!-- 2&#45;&gt;8 -->
<g id="edge11" class="edge">
<title>2&#45;&gt;8</title>
<path fill="none" stroke="grey" stroke-width="2" d="M97.99,-287.7C109.69,-278.8 124.11,-267.82 136.76,-258.2"/>
<polygon fill="grey" stroke="grey" stroke-width="2" points="138.93,-260.94 144.77,-252.1 134.69,-255.37 138.93,-260.94"/>
</g>
<!-- 3 -->
<g id="node4" class="node">
<title>3</title>
<path fill="none" stroke="#88d856" stroke-width="2" d="M95.25,-396C95.25,-396 55.25,-396 55.25,-396 49.25,-396 43.25,-390 43.25,-384 43.25,-384 43.25,-372 43.25,-372 43.25,-366 49.25,-360 55.25,-360 55.25,-360 95.25,-360 95.25,-360 101.25,-360 107.25,-366 107.25,-372 107.25,-372 107.25,-384 107.25,-384 107.25,-390 101.25,-396 95.25,-396"/>
<text text-anchor="middle" x="75.25" y="-375.5" font-family="sans" font-size="10.00">assembly</text>
</g>
<!-- 3&#45;&gt;2 -->
<g id="edge5" class="edge">
<title>3&#45;&gt;2</title>
<path fill="none" stroke="grey" stroke-width="2" d="M75.25,-359.7C75.25,-351.98 75.25,-342.71 75.25,-334.11"/>
<polygon fill="grey" stroke="grey" stroke-width="2" points="78.75,-334.1 75.25,-324.1 71.75,-334.1 78.75,-334.1"/>
</g>
<!-- 4 -->
<g id="node5" class="node">
<title>4</title>
<path fill="none" stroke="#d88d56" stroke-width="2" d="M106.25,-468C106.25,-468 44.25,-468 44.25,-468 38.25,-468 32.25,-462 32.25,-456 32.25,-456 32.25,-444 32.25,-444 32.25,-438 38.25,-432 44.25,-432 44.25,-432 106.25,-432 106.25,-432 112.25,-432 118.25,-438 118.25,-444 118.25,-444 118.25,-456 118.25,-456 118.25,-462 112.25,-468 106.25,-468"/>
<text text-anchor="middle" x="75.25" y="-447.5" font-family="sans" font-size="10.00">host_mapping</text>
</g>
<!-- 4&#45;&gt;3 -->
<g id="edge6" class="edge">
<title>4&#45;&gt;3</title>
<path fill="none" stroke="grey" stroke-width="2" d="M75.25,-431.7C75.25,-423.98 75.25,-414.71 75.25,-406.11"/>
<polygon fill="grey" stroke="grey" stroke-width="2" points="78.75,-406.1 75.25,-396.1 71.75,-406.1 78.75,-406.1"/>
</g>
<!-- 5 -->
<g id="node6" class="node">
<title>5</title>
<path fill="none" stroke="#59d856" stroke-width="2" d="M110.75,-540C110.75,-540 39.75,-540 39.75,-540 33.75,-540 27.75,-534 27.75,-528 27.75,-528 27.75,-516 27.75,-516 27.75,-510 33.75,-504 39.75,-504 39.75,-504 110.75,-504 110.75,-504 116.75,-504 122.75,-510 122.75,-516 122.75,-516 122.75,-528 122.75,-528 122.75,-534 116.75,-540 110.75,-540"/>
<text text-anchor="middle" x="75.25" y="-525" font-family="sans" font-size="10.00">quality_control</text>
<text text-anchor="middle" x="75.25" y="-514" font-family="sans" font-size="10.00">sample: sample</text>
</g>
<!-- 5&#45;&gt;4 -->
<g id="edge7" class="edge">
<title>5&#45;&gt;4</title>
<path fill="none" stroke="grey" stroke-width="2" d="M75.25,-503.7C75.25,-495.98 75.25,-486.71 75.25,-478.11"/>
<polygon fill="grey" stroke="grey" stroke-width="2" points="78.75,-478.1 75.25,-468.1 71.75,-478.1 78.75,-478.1"/>
</g>
<!-- 6&#45;&gt;1 -->
<g id="edge3" class="edge">
<title>6&#45;&gt;1</title>
<path fill="none" stroke="grey" stroke-width="2" d="M62.25,-143.7C62.25,-135.98 62.25,-126.71 62.25,-118.11"/>
<polygon fill="grey" stroke="grey" stroke-width="2" points="65.75,-118.1 62.25,-108.1 58.75,-118.1 65.75,-118.1"/>
</g>
<!-- 7&#45;&gt;1 -->
<g id="edge4" class="edge">
<title>7&#45;&gt;1</title>
<path fill="none" stroke="grey" stroke-width="2" d="M137.03,-143.88C124.33,-134.89 108.58,-123.76 94.83,-114.03"/>
<polygon fill="grey" stroke="grey" stroke-width="2" points="96.75,-111.11 86.56,-108.19 92.7,-116.82 96.75,-111.11"/>
</g>
<!-- 9 -->
<g id="node10" class="node">
<title>9</title>
<path fill="none" stroke="#bed856" stroke-width="2" d="M181.75,-108C181.75,-108 140.75,-108 140.75,-108 134.75,-108 128.75,-102 128.75,-96 128.75,-96 128.75,-84 128.75,-84 128.75,-78 134.75,-72 140.75,-72 140.75,-72 181.75,-72 181.75,-72 187.75,-72 193.75,-78 193.75,-84 193.75,-84 193.75,-96 193.75,-96 193.75,-102 187.75,-108 181.75,-108"/>
<text text-anchor="middle" x="161.25" y="-87.5" font-family="sans" font-size="10.00">plot_virus</text>
</g>
<!-- 7&#45;&gt;9 -->
<g id="edge12" class="edge">
<title>7&#45;&gt;9</title>
<path fill="none" stroke="grey" stroke-width="2" d="M161.25,-143.7C161.25,-135.98 161.25,-126.71 161.25,-118.11"/>
<polygon fill="grey" stroke="grey" stroke-width="2" points="164.75,-118.1 161.25,-108.1 157.75,-118.1 164.75,-118.1"/>
</g>
<!-- 8&#45;&gt;7 -->
<g id="edge10" class="edge">
<title>8&#45;&gt;7</title>
<path fill="none" stroke="grey" stroke-width="2" d="M165.77,-215.7C165.1,-207.98 164.31,-198.71 163.57,-190.11"/>
<polygon fill="grey" stroke="grey" stroke-width="2" points="167.06,-189.77 162.71,-180.1 160.08,-190.37 167.06,-189.77"/>
</g>
</g>
</svg>
