<?xml version="1.0" encoding="UTF-8" standalone="no"?>
<!DOCTYPE svg PUBLIC "-//W3C//DTD SVG 1.1//EN"
 "http://www.w3.org/Graphics/SVG/1.1/DTD/svg11.dtd">
<!-- Generated by graphviz version 8.1.0 (20230707.2238)
 -->
<!-- Title: snakemake_dag Pages: 1 -->
<svg width="394pt" height="548pt"
 viewBox="0.00 0.00 393.83 548.00" xmlns="http://www.w3.org/2000/svg" xmlns:xlink="http://www.w3.org/1999/xlink">
<g id="graph0" class="graph" transform="scale(1 1) rotate(0) translate(4 544)">
<title>snakemake_dag</title>
<polygon fill="white" stroke="none" points="-4,4 -4,-544 389.83,-544 389.83,4 -4,4"/>
<!-- 0 -->
<g id="node1" class="node">
<title>0</title>
<path fill="none" stroke="#d85656" stroke-width="2" d="M176.96,-36C176.96,-36 127.96,-36 127.96,-36 121.96,-36 115.96,-30 115.96,-24 115.96,-24 115.96,-12 115.96,-12 115.96,-6 121.96,0 127.96,0 127.96,0 176.96,0 176.96,0 182.96,0 188.96,-6 188.96,-12 188.96,-12 188.96,-24 188.96,-24 188.96,-30 182.96,-36 176.96,-36"/>
<text text-anchor="middle" x="152.46" y="-14.88" font-family="sans" font-size="10.00">plot_results</text>
</g>
<!-- 1 -->
<g id="node2" class="node">
<title>1</title>
<path fill="none" stroke="#56d86b" stroke-width="2" d="M167.46,-108C167.46,-108 137.46,-108 137.46,-108 131.46,-108 125.46,-102 125.46,-96 125.46,-96 125.46,-84 125.46,-84 125.46,-78 131.46,-72 137.46,-72 137.46,-72 167.46,-72 167.46,-72 173.46,-72 179.46,-78 179.46,-84 179.46,-84 179.46,-96 179.46,-96 179.46,-102 173.46,-108 167.46,-108"/>
<text text-anchor="middle" x="152.46" y="-86.88" font-family="sans" font-size="10.00">results</text>
</g>
<!-- 1&#45;&gt;0 -->
<g id="edge1" class="edge">
<title>1&#45;&gt;0</title>
<path fill="none" stroke="grey" stroke-width="2" d="M152.46,-71.34C152.46,-64.75 152.46,-57.08 152.46,-49.67"/>
<polygon fill="grey" stroke="grey" stroke-width="2" points="155.96,-49.9 152.46,-39.9 148.96,-49.9 155.96,-49.9"/>
</g>
<!-- 2 -->
<g id="node3" class="node">
<title>2</title>
<path fill="none" stroke="#d8b456" stroke-width="2" d="M130.46,-252C130.46,-252 54.46,-252 54.46,-252 48.46,-252 42.46,-246 42.46,-240 42.46,-240 42.46,-228 42.46,-228 42.46,-222 48.46,-216 54.46,-216 54.46,-216 130.46,-216 130.46,-216 136.46,-216 142.46,-222 142.46,-228 142.46,-228 142.46,-240 142.46,-240 142.46,-246 136.46,-252 130.46,-252"/>
<text text-anchor="middle" x="92.46" y="-230.88" font-family="sans" font-size="10.00">annotate_contigs</text>
</g>
<!-- 2&#45;&gt;1 -->
<g id="edge2" class="edge">
<title>2&#45;&gt;1</title>
<path fill="none" stroke="grey" stroke-width="2" d="M45.1,-215C30,-206.75 15.01,-195.31 6.46,-180 -1.35,-166.03 -2.73,-157.1 6.46,-144 30.13,-110.22 77.63,-97.89 112.04,-93.43"/>
<polygon fill="grey" stroke="grey" stroke-width="2" points="111.95,-96.64 121.51,-92.08 111.19,-89.68 111.95,-96.64"/>
</g>
<!-- 6 -->
<g id="node7" class="node">
<title>6</title>
<path fill="none" stroke="#5682d8" stroke-width="2" d="M91.46,-180C91.46,-180 27.46,-180 27.46,-180 21.46,-180 15.46,-174 15.46,-168 15.46,-168 15.46,-156 15.46,-156 15.46,-150 21.46,-144 27.46,-144 27.46,-144 91.46,-144 91.46,-144 97.46,-144 103.46,-150 103.46,-156 103.46,-156 103.46,-168 103.46,-168 103.46,-174 97.46,-180 91.46,-180"/>
<text text-anchor="middle" x="59.46" y="-158.88" font-family="sans" font-size="10.00">virus_mapping</text>
</g>
<!-- 2&#45;&gt;6 -->
<g id="edge9" class="edge">
<title>2&#45;&gt;6</title>
<path fill="none" stroke="grey" stroke-width="2" d="M84.13,-215.34C80.87,-208.43 77.04,-200.31 73.39,-192.56"/>
<polygon fill="grey" stroke="grey" stroke-width="2" points="76.32,-190.45 68.89,-182.9 69.99,-193.44 76.32,-190.45"/>
</g>
<!-- 10 -->
<g id="node11" class="node">
<title>10</title>
<path fill="none" stroke="#56d89a" stroke-width="2" d="M205.58,-180C205.58,-180 133.33,-180 133.33,-180 127.33,-180 121.33,-174 121.33,-168 121.33,-168 121.33,-156 121.33,-156 121.33,-150 127.33,-144 133.33,-144 133.33,-144 205.58,-144 205.58,-144 211.58,-144 217.58,-150 217.58,-156 217.58,-156 217.58,-168 217.58,-168 217.58,-174 211.58,-180 205.58,-180"/>
<text text-anchor="middle" x="169.46" y="-158.88" font-family="sans" font-size="10.00">host_mapping_2</text>
</g>
<!-- 2&#45;&gt;10 -->
<g id="edge13" class="edge">
<title>2&#45;&gt;10</title>
<path fill="none" stroke="grey" stroke-width="2" d="M111.89,-215.34C120.48,-207.52 130.78,-198.16 140.27,-189.53"/>
<polygon fill="grey" stroke="grey" stroke-width="2" points="142.72,-192.22 147.76,-182.9 138.01,-187.04 142.72,-192.22"/>
</g>
<!-- 3 -->
<g id="node4" class="node">
<title>3</title>
<path fill="none" stroke="#ced856" stroke-width="2" d="M172.08,-396C172.08,-396 132.83,-396 132.83,-396 126.83,-396 120.83,-390 120.83,-384 120.83,-384 120.83,-372 120.83,-372 120.83,-366 126.83,-360 132.83,-360 132.83,-360 172.08,-360 172.08,-360 178.08,-360 184.08,-366 184.08,-372 184.08,-372 184.08,-384 184.08,-384 184.08,-390 178.08,-396 172.08,-396"/>
<text text-anchor="middle" x="152.46" y="-374.88" font-family="sans" font-size="10.00">assembly</text>
</g>
<!-- 3&#45;&gt;2 -->
<g id="edge6" class="edge">
<title>3&#45;&gt;2</title>
<path fill="none" stroke="grey" stroke-width="2" d="M144.86,-359.02C134.8,-335.22 116.95,-292.97 104.91,-264.48"/>
<polygon fill="grey" stroke="grey" stroke-width="2" points="108.11,-262.69 100.99,-254.84 101.66,-265.41 108.11,-262.69"/>
</g>
<!-- 8 -->
<g id="node9" class="node">
<title>8</title>
<path fill="none" stroke="#9fd856" stroke-width="2" d="M256.08,-324C256.08,-324 180.83,-324 180.83,-324 174.83,-324 168.83,-318 168.83,-312 168.83,-312 168.83,-300 168.83,-300 168.83,-294 174.83,-288 180.83,-288 180.83,-288 256.08,-288 256.08,-288 262.08,-288 268.08,-294 268.08,-300 268.08,-300 268.08,-312 268.08,-312 268.08,-318 262.08,-324 256.08,-324"/>
<text text-anchor="middle" x="218.46" y="-302.88" font-family="sans" font-size="10.00">contig_clustering</text>
</g>
<!-- 3&#45;&gt;8 -->
<g id="edge11" class="edge">
<title>3&#45;&gt;8</title>
<path fill="none" stroke="grey" stroke-width="2" d="M169.11,-359.34C176.25,-351.77 184.75,-342.75 192.66,-334.35"/>
<polygon fill="grey" stroke="grey" stroke-width="2" points="195.26,-336.58 199.58,-326.9 190.17,-331.78 195.26,-336.58"/>
</g>
<!-- 4 -->
<g id="node5" class="node">
<title>4</title>
<path fill="none" stroke="#56d8c9" stroke-width="2" d="M182.96,-468C182.96,-468 121.96,-468 121.96,-468 115.96,-468 109.96,-462 109.96,-456 109.96,-456 109.96,-444 109.96,-444 109.96,-438 115.96,-432 121.96,-432 121.96,-432 182.96,-432 182.96,-432 188.96,-432 194.96,-438 194.96,-444 194.96,-444 194.96,-456 194.96,-456 194.96,-462 188.96,-468 182.96,-468"/>
<text text-anchor="middle" x="152.46" y="-446.88" font-family="sans" font-size="10.00">host_mapping</text>
</g>
<!-- 4&#45;&gt;3 -->
<g id="edge7" class="edge">
<title>4&#45;&gt;3</title>
<path fill="none" stroke="grey" stroke-width="2" d="M152.46,-431.34C152.46,-424.75 152.46,-417.08 152.46,-409.67"/>
<polygon fill="grey" stroke="grey" stroke-width="2" points="155.96,-409.9 152.46,-399.9 148.96,-409.9 155.96,-409.9"/>
</g>
<!-- 5 -->
<g id="node6" class="node">
<title>5</title>
<path fill="none" stroke="#56b1d8" stroke-width="2" d="M186.33,-540C186.33,-540 118.58,-540 118.58,-540 112.58,-540 106.58,-534 106.58,-528 106.58,-528 106.58,-516 106.58,-516 106.58,-510 112.58,-504 118.58,-504 118.58,-504 186.33,-504 186.33,-504 192.33,-504 198.33,-510 198.33,-516 198.33,-516 198.33,-528 198.33,-528 198.33,-534 192.33,-540 186.33,-540"/>
<text text-anchor="middle" x="152.46" y="-525.25" font-family="sans" font-size="10.00">quality_control</text>
<text text-anchor="middle" x="152.46" y="-512.5" font-family="sans" font-size="10.00">sample: prueba</text>
</g>
<!-- 5&#45;&gt;4 -->
<g id="edge8" class="edge">
<title>5&#45;&gt;4</title>
<path fill="none" stroke="grey" stroke-width="2" d="M152.46,-503.34C152.46,-496.75 152.46,-489.08 152.46,-481.67"/>
<polygon fill="grey" stroke="grey" stroke-width="2" points="155.96,-481.9 152.46,-471.9 148.96,-481.9 155.96,-481.9"/>
</g>
<!-- 6&#45;&gt;1 -->
<g id="edge3" class="edge">
<title>6&#45;&gt;1</title>
<path fill="none" stroke="grey" stroke-width="2" d="M82.92,-143.34C93.63,-135.27 106.53,-125.57 118.29,-116.72"/>
<polygon fill="grey" stroke="grey" stroke-width="2" points="120.79,-118.71 126.67,-109.9 116.58,-113.12 120.79,-118.71"/>
</g>
<!-- 7 -->
<g id="node8" class="node">
<title>7</title>
<path fill="none" stroke="#70d856" stroke-width="2" d="M284.96,-252C284.96,-252 205.96,-252 205.96,-252 199.96,-252 193.96,-246 193.96,-240 193.96,-240 193.96,-228 193.96,-228 193.96,-222 199.96,-216 205.96,-216 205.96,-216 284.96,-216 284.96,-216 290.96,-216 296.96,-222 296.96,-228 296.96,-228 296.96,-240 296.96,-240 296.96,-246 290.96,-252 284.96,-252"/>
<text text-anchor="middle" x="245.46" y="-230.88" font-family="sans" font-size="10.00">annotate_clusters</text>
</g>
<!-- 7&#45;&gt;1 -->
<g id="edge4" class="edge">
<title>7&#45;&gt;1</title>
<path fill="none" stroke="grey" stroke-width="2" d="M245.36,-215.18C244.46,-196.11 240.65,-165.68 226.46,-144 217.66,-130.57 204.2,-119.46 191.16,-110.93"/>
<polygon fill="grey" stroke="grey" stroke-width="2" points="192.77,-107.6 182.41,-105.39 189.13,-113.58 192.77,-107.6"/>
</g>
<!-- 9 -->
<g id="node10" class="node">
<title>9</title>
<path fill="none" stroke="#d88556" stroke-width="2" d="M373.83,-180C373.83,-180 285.08,-180 285.08,-180 279.08,-180 273.08,-174 273.08,-168 273.08,-168 273.08,-156 273.08,-156 273.08,-150 279.08,-144 285.08,-144 285.08,-144 373.83,-144 373.83,-144 379.83,-144 385.83,-150 385.83,-156 385.83,-156 385.83,-168 385.83,-168 385.83,-174 379.83,-180 373.83,-180"/>
<text text-anchor="middle" x="329.46" y="-158.88" font-family="sans" font-size="10.00">virus_mapping_clus</text>
</g>
<!-- 7&#45;&gt;9 -->
<g id="edge12" class="edge">
<title>7&#45;&gt;9</title>
<path fill="none" stroke="grey" stroke-width="2" d="M266.65,-215.34C276.23,-207.36 287.73,-197.77 298.27,-188.99"/>
<polygon fill="grey" stroke="grey" stroke-width="2" points="300.53,-190.99 305.97,-181.9 296.05,-185.61 300.53,-190.99"/>
</g>
<!-- 8&#45;&gt;7 -->
<g id="edge10" class="edge">
<title>8&#45;&gt;7</title>
<path fill="none" stroke="grey" stroke-width="2" d="M225.27,-287.34C227.9,-280.51 230.99,-272.5 233.95,-264.83"/>
<polygon fill="grey" stroke="grey" stroke-width="2" points="237.22,-265.49 237.55,-254.9 230.69,-262.97 237.22,-265.49"/>
</g>
<!-- 9&#45;&gt;1 -->
<g id="edge5" class="edge">
<title>9&#45;&gt;1</title>
<path fill="none" stroke="grey" stroke-width="2" d="M284.33,-143.15C255.91,-131.91 219.56,-117.54 192.22,-106.73"/>
<polygon fill="grey" stroke="grey" stroke-width="2" points="192.94,-103.46 182.35,-103.03 190.37,-109.97 192.94,-103.46"/>
</g>
</g>
</svg>
