<?xml version="1.0" encoding="UTF-8" standalone="no"?>
<!DOCTYPE svg PUBLIC "-//W3C//DTD SVG 1.1//EN"
 "http://www.w3.org/Graphics/SVG/1.1/DTD/svg11.dtd">
<!-- Generated by graphviz version 8.1.0 (20230707.2238)
 -->
<!-- Title: snakemake_dag Pages: 1 -->
<svg width="410pt" height="476pt"
 viewBox="0.00 0.00 410.12 476.00" xmlns="http://www.w3.org/2000/svg" xmlns:xlink="http://www.w3.org/1999/xlink">
<g id="graph0" class="graph" transform="scale(1 1) rotate(0) translate(4 472)">
<title>snakemake_dag</title>
<polygon fill="white" stroke="none" points="-4,4 -4,-472 406.12,-472 406.12,4 -4,4"/>
<!-- 0 -->
<g id="node1" class="node">
<title>0</title>
<path fill="none" stroke="#d85656" stroke-width="2" d="M192.5,-36C192.5,-36 143.5,-36 143.5,-36 137.5,-36 131.5,-30 131.5,-24 131.5,-24 131.5,-12 131.5,-12 131.5,-6 137.5,0 143.5,0 143.5,0 192.5,0 192.5,0 198.5,0 204.5,-6 204.5,-12 204.5,-12 204.5,-24 204.5,-24 204.5,-30 198.5,-36 192.5,-36"/>
<text text-anchor="middle" x="168" y="-14.88" font-family="sans" font-size="10.00">plot_results</text>
</g>
<!-- 1 -->
<g id="node2" class="node">
<title>1</title>
<path fill="none" stroke="#5682d8" stroke-width="2" d="M183,-108C183,-108 153,-108 153,-108 147,-108 141,-102 141,-96 141,-96 141,-84 141,-84 141,-78 147,-72 153,-72 153,-72 183,-72 183,-72 189,-72 195,-78 195,-84 195,-84 195,-96 195,-96 195,-102 189,-108 183,-108"/>
<text text-anchor="middle" x="168" y="-86.88" font-family="sans" font-size="10.00">results</text>
</g>
<!-- 1&#45;&gt;0 -->
<g id="edge1" class="edge">
<title>1&#45;&gt;0</title>
<path fill="none" stroke="grey" stroke-width="2" d="M168,-71.34C168,-64.75 168,-57.08 168,-49.67"/>
<polygon fill="grey" stroke="grey" stroke-width="2" points="171.5,-49.9 168,-39.9 164.5,-49.9 171.5,-49.9"/>
</g>
<!-- 2 -->
<g id="node3" class="node">
<title>2</title>
<path fill="none" stroke="#ced856" stroke-width="2" d="M88,-180C88,-180 12,-180 12,-180 6,-180 0,-174 0,-168 0,-168 0,-156 0,-156 0,-150 6,-144 12,-144 12,-144 88,-144 88,-144 94,-144 100,-150 100,-156 100,-156 100,-168 100,-168 100,-174 94,-180 88,-180"/>
<text text-anchor="middle" x="50" y="-158.88" font-family="sans" font-size="10.00">annotate_contigs</text>
</g>
<!-- 2&#45;&gt;1 -->
<g id="edge2" class="edge">
<title>2&#45;&gt;1</title>
<path fill="none" stroke="grey" stroke-width="2" d="M80.08,-143.15C95.03,-134.29 113.26,-123.47 129.24,-113.99"/>
<polygon fill="grey" stroke="grey" stroke-width="2" points="131.58,-116.49 138.4,-108.37 128.01,-110.47 131.58,-116.49"/>
</g>
<!-- 3 -->
<g id="node4" class="node">
<title>3</title>
<path fill="none" stroke="#d88556" stroke-width="2" d="M201.62,-324C201.62,-324 162.38,-324 162.38,-324 156.38,-324 150.38,-318 150.38,-312 150.38,-312 150.38,-300 150.38,-300 150.38,-294 156.38,-288 162.38,-288 162.38,-288 201.62,-288 201.62,-288 207.62,-288 213.62,-294 213.62,-300 213.62,-300 213.62,-312 213.62,-312 213.62,-318 207.62,-324 201.62,-324"/>
<text text-anchor="middle" x="182" y="-302.88" font-family="sans" font-size="10.00">assembly</text>
</g>
<!-- 3&#45;&gt;2 -->
<g id="edge6" class="edge">
<title>3&#45;&gt;2</title>
<path fill="none" stroke="grey" stroke-width="2" d="M149.44,-297.15C124.94,-289.58 92.38,-275.7 73,-252 59.57,-235.58 53.89,-212.21 51.52,-193.54"/>
<polygon fill="grey" stroke="grey" stroke-width="2" points="54.73,-193.29 50.31,-183.66 47.76,-193.95 54.73,-193.29"/>
</g>
<!-- 6 -->
<g id="node7" class="node">
<title>6</title>
<path fill="none" stroke="#70d856" stroke-width="2" d="M158,-252C158,-252 94,-252 94,-252 88,-252 82,-246 82,-240 82,-240 82,-228 82,-228 82,-222 88,-216 94,-216 94,-216 158,-216 158,-216 164,-216 170,-222 170,-228 170,-228 170,-240 170,-240 170,-246 164,-252 158,-252"/>
<text text-anchor="middle" x="126" y="-230.88" font-family="sans" font-size="10.00">virus_mapping</text>
</g>
<!-- 3&#45;&gt;6 -->
<g id="edge9" class="edge">
<title>3&#45;&gt;6</title>
<path fill="none" stroke="grey" stroke-width="2" d="M167.87,-287.34C161.95,-279.93 154.91,-271.14 148.32,-262.9"/>
<polygon fill="grey" stroke="grey" stroke-width="2" points="150.3,-260.52 141.32,-254.9 144.84,-264.9 150.3,-260.52"/>
</g>
<!-- 8 -->
<g id="node9" class="node">
<title>8</title>
<path fill="none" stroke="#56d86b" stroke-width="2" d="M275.62,-252C275.62,-252 200.38,-252 200.38,-252 194.38,-252 188.38,-246 188.38,-240 188.38,-240 188.38,-228 188.38,-228 188.38,-222 194.38,-216 200.38,-216 200.38,-216 275.62,-216 275.62,-216 281.62,-216 287.62,-222 287.62,-228 287.62,-228 287.62,-240 287.62,-240 287.62,-246 281.62,-252 275.62,-252"/>
<text text-anchor="middle" x="238" y="-230.88" font-family="sans" font-size="10.00">contig_clustering</text>
</g>
<!-- 3&#45;&gt;8 -->
<g id="edge11" class="edge">
<title>3&#45;&gt;8</title>
<path fill="none" stroke="grey" stroke-width="2" d="M196.13,-287.34C202.05,-279.93 209.09,-271.14 215.68,-262.9"/>
<polygon fill="grey" stroke="grey" stroke-width="2" points="219.16,-264.9 222.68,-254.9 213.7,-260.52 219.16,-264.9"/>
</g>
<!-- 10 -->
<g id="node11" class="node">
<title>10</title>
<path fill="none" stroke="#9fd856" stroke-width="2" d="M390.12,-252C390.12,-252 317.88,-252 317.88,-252 311.88,-252 305.88,-246 305.88,-240 305.88,-240 305.88,-228 305.88,-228 305.88,-222 311.88,-216 317.88,-216 317.88,-216 390.12,-216 390.12,-216 396.12,-216 402.12,-222 402.12,-228 402.12,-228 402.12,-240 402.12,-240 402.12,-246 396.12,-252 390.12,-252"/>
<text text-anchor="middle" x="354" y="-230.88" font-family="sans" font-size="10.00">host_mapping_2</text>
</g>
<!-- 3&#45;&gt;10 -->
<g id="edge13" class="edge">
<title>3&#45;&gt;10</title>
<path fill="none" stroke="grey" stroke-width="2" d="M214.35,-291.83C237.83,-282.28 270.2,-269.11 297.86,-257.85"/>
<polygon fill="grey" stroke="grey" stroke-width="2" points="299.84,-261.01 307.78,-253.99 297.2,-254.52 299.84,-261.01"/>
</g>
<!-- 4 -->
<g id="node5" class="node">
<title>4</title>
<path fill="none" stroke="#d8b456" stroke-width="2" d="M212.5,-396C212.5,-396 151.5,-396 151.5,-396 145.5,-396 139.5,-390 139.5,-384 139.5,-384 139.5,-372 139.5,-372 139.5,-366 145.5,-360 151.5,-360 151.5,-360 212.5,-360 212.5,-360 218.5,-360 224.5,-366 224.5,-372 224.5,-372 224.5,-384 224.5,-384 224.5,-390 218.5,-396 212.5,-396"/>
<text text-anchor="middle" x="182" y="-374.88" font-family="sans" font-size="10.00">host_mapping</text>
</g>
<!-- 4&#45;&gt;3 -->
<g id="edge7" class="edge">
<title>4&#45;&gt;3</title>
<path fill="none" stroke="grey" stroke-width="2" d="M182,-359.34C182,-352.75 182,-345.08 182,-337.67"/>
<polygon fill="grey" stroke="grey" stroke-width="2" points="185.5,-337.9 182,-327.9 178.5,-337.9 185.5,-337.9"/>
</g>
<!-- 5 -->
<g id="node6" class="node">
<title>5</title>
<path fill="none" stroke="#56d8c9" stroke-width="2" d="M215.88,-468C215.88,-468 148.12,-468 148.12,-468 142.12,-468 136.12,-462 136.12,-456 136.12,-456 136.12,-444 136.12,-444 136.12,-438 142.12,-432 148.12,-432 148.12,-432 215.88,-432 215.88,-432 221.88,-432 227.88,-438 227.88,-444 227.88,-444 227.88,-456 227.88,-456 227.88,-462 221.88,-468 215.88,-468"/>
<text text-anchor="middle" x="182" y="-453.25" font-family="sans" font-size="10.00">quality_control</text>
<text text-anchor="middle" x="182" y="-440.5" font-family="sans" font-size="10.00">sample: prueba</text>
</g>
<!-- 5&#45;&gt;4 -->
<g id="edge8" class="edge">
<title>5&#45;&gt;4</title>
<path fill="none" stroke="grey" stroke-width="2" d="M182,-431.34C182,-424.75 182,-417.08 182,-409.67"/>
<polygon fill="grey" stroke="grey" stroke-width="2" points="185.5,-409.9 182,-399.9 178.5,-409.9 185.5,-409.9"/>
</g>
<!-- 6&#45;&gt;1 -->
<g id="edge3" class="edge">
<title>6&#45;&gt;1</title>
<path fill="none" stroke="grey" stroke-width="2" d="M129.43,-215.06C133.09,-196.94 139.38,-168.23 147,-144 149.4,-136.38 152.37,-128.29 155.32,-120.8"/>
<polygon fill="grey" stroke="grey" stroke-width="2" points="158.62,-121.5 159.15,-110.92 152.14,-118.86 158.62,-121.5"/>
</g>
<!-- 7 -->
<g id="node8" class="node">
<title>7</title>
<path fill="none" stroke="#56d89a" stroke-width="2" d="M247.5,-180C247.5,-180 168.5,-180 168.5,-180 162.5,-180 156.5,-174 156.5,-168 156.5,-168 156.5,-156 156.5,-156 156.5,-150 162.5,-144 168.5,-144 168.5,-144 247.5,-144 247.5,-144 253.5,-144 259.5,-150 259.5,-156 259.5,-156 259.5,-168 259.5,-168 259.5,-174 253.5,-180 247.5,-180"/>
<text text-anchor="middle" x="208" y="-158.88" font-family="sans" font-size="10.00">annotate_clusters</text>
</g>
<!-- 7&#45;&gt;1 -->
<g id="edge4" class="edge">
<title>7&#45;&gt;1</title>
<path fill="none" stroke="grey" stroke-width="2" d="M197.91,-143.34C193.86,-136.26 189.1,-127.92 184.57,-120"/>
<polygon fill="grey" stroke="grey" stroke-width="2" points="187.23,-117.85 179.23,-110.9 181.15,-121.32 187.23,-117.85"/>
</g>
<!-- 8&#45;&gt;7 -->
<g id="edge10" class="edge">
<title>8&#45;&gt;7</title>
<path fill="none" stroke="grey" stroke-width="2" d="M230.43,-215.34C227.5,-208.51 224.07,-200.5 220.79,-192.83"/>
<polygon fill="grey" stroke="grey" stroke-width="2" points="223.83,-190.71 216.67,-182.9 217.39,-193.47 223.83,-190.71"/>
</g>
<!-- 9 -->
<g id="node10" class="node">
<title>9</title>
<path fill="none" stroke="#56b1d8" stroke-width="2" d="M378.38,-180C378.38,-180 289.62,-180 289.62,-180 283.62,-180 277.62,-174 277.62,-168 277.62,-168 277.62,-156 277.62,-156 277.62,-150 283.62,-144 289.62,-144 289.62,-144 378.38,-144 378.38,-144 384.38,-144 390.38,-150 390.38,-156 390.38,-156 390.38,-168 390.38,-168 390.38,-174 384.38,-180 378.38,-180"/>
<text text-anchor="middle" x="334" y="-158.88" font-family="sans" font-size="10.00">virus_mapping_clus</text>
</g>
<!-- 8&#45;&gt;9 -->
<g id="edge12" class="edge">
<title>8&#45;&gt;9</title>
<path fill="none" stroke="grey" stroke-width="2" d="M262.47,-215.15C273.64,-207.01 287.07,-197.22 299.27,-188.33"/>
<polygon fill="grey" stroke="grey" stroke-width="2" points="301.55,-190.53 307.57,-181.81 297.43,-184.88 301.55,-190.53"/>
</g>
<!-- 9&#45;&gt;1 -->
<g id="edge5" class="edge">
<title>9&#45;&gt;1</title>
<path fill="none" stroke="grey" stroke-width="2" d="M291.68,-143.15C265.76,-132.22 232.81,-118.33 207.43,-107.63"/>
<polygon fill="grey" stroke="grey" stroke-width="2" points="208.23,-104.32 197.65,-103.66 205.51,-110.77 208.23,-104.32"/>
</g>
</g>
</svg>
