<?xml version="1.0" encoding="UTF-8" standalone="no"?>
<!DOCTYPE svg PUBLIC "-//W3C//DTD SVG 1.1//EN"
 "http://www.w3.org/Graphics/SVG/1.1/DTD/svg11.dtd">
<!-- Generated by graphviz version 8.1.0 (20230707.2238)
 -->
<!-- Title: snakemake_dag Pages: 1 -->
<svg width="108pt" height="332pt"
 viewBox="0.00 0.00 108.00 332.00" xmlns="http://www.w3.org/2000/svg" xmlns:xlink="http://www.w3.org/1999/xlink">
<g id="graph0" class="graph" transform="scale(1 1) rotate(0) translate(4 328)">
<title>snakemake_dag</title>
<polygon fill="white" stroke="none" points="-4,4 -4,-328 104,-328 104,4 -4,4"/>
<!-- 0 -->
<g id="node1" class="node">
<title>0</title>
<path fill="none" stroke="#56d88a" stroke-width="2" d="M88,-36C88,-36 12,-36 12,-36 6,-36 0,-30 0,-24 0,-24 0,-12 0,-12 0,-6 6,0 12,0 12,0 88,0 88,0 94,0 100,-6 100,-12 100,-12 100,-24 100,-24 100,-30 94,-36 88,-36"/>
<text text-anchor="middle" x="50" y="-14.88" font-family="sans" font-size="10.00">annotate_contigs</text>
</g>
<!-- 1 -->
<g id="node2" class="node">
<title>1</title>
<path fill="none" stroke="#d8bc56" stroke-width="2" d="M82,-108C82,-108 18,-108 18,-108 12,-108 6,-102 6,-96 6,-96 6,-84 6,-84 6,-78 12,-72 18,-72 18,-72 82,-72 82,-72 88,-72 94,-78 94,-84 94,-84 94,-96 94,-96 94,-102 88,-108 82,-108"/>
<text text-anchor="middle" x="50" y="-86.88" font-family="sans" font-size="10.00">virus_mapping</text>
</g>
<!-- 1&#45;&gt;0 -->
<g id="edge1" class="edge">
<title>1&#45;&gt;0</title>
<path fill="none" stroke="grey" stroke-width="2" d="M50,-71.34C50,-64.75 50,-57.08 50,-49.67"/>
<polygon fill="grey" stroke="grey" stroke-width="2" points="53.5,-49.9 50,-39.9 46.5,-49.9 53.5,-49.9"/>
</g>
<!-- 2 -->
<g id="node3" class="node">
<title>2</title>
<path fill="none" stroke="#d85656" stroke-width="2" d="M69.62,-180C69.62,-180 30.38,-180 30.38,-180 24.38,-180 18.38,-174 18.38,-168 18.38,-168 18.38,-156 18.38,-156 18.38,-150 24.38,-144 30.38,-144 30.38,-144 69.62,-144 69.62,-144 75.62,-144 81.62,-150 81.62,-156 81.62,-156 81.62,-168 81.62,-168 81.62,-174 75.62,-180 69.62,-180"/>
<text text-anchor="middle" x="50" y="-158.88" font-family="sans" font-size="10.00">assembly</text>
</g>
<!-- 2&#45;&gt;1 -->
<g id="edge2" class="edge">
<title>2&#45;&gt;1</title>
<path fill="none" stroke="grey" stroke-width="2" d="M50,-143.34C50,-136.75 50,-129.08 50,-121.67"/>
<polygon fill="grey" stroke="grey" stroke-width="2" points="53.5,-121.9 50,-111.9 46.5,-121.9 53.5,-121.9"/>
</g>
<!-- 3 -->
<g id="node4" class="node">
<title>3</title>
<path fill="none" stroke="#56c1d8" stroke-width="2" d="M80.5,-252C80.5,-252 19.5,-252 19.5,-252 13.5,-252 7.5,-246 7.5,-240 7.5,-240 7.5,-228 7.5,-228 7.5,-222 13.5,-216 19.5,-216 19.5,-216 80.5,-216 80.5,-216 86.5,-216 92.5,-222 92.5,-228 92.5,-228 92.5,-240 92.5,-240 92.5,-246 86.5,-252 80.5,-252"/>
<text text-anchor="middle" x="50" y="-230.88" font-family="sans" font-size="10.00">host_mapping</text>
</g>
<!-- 3&#45;&gt;2 -->
<g id="edge3" class="edge">
<title>3&#45;&gt;2</title>
<path fill="none" stroke="grey" stroke-width="2" d="M50,-215.34C50,-208.75 50,-201.08 50,-193.67"/>
<polygon fill="grey" stroke="grey" stroke-width="2" points="53.5,-193.9 50,-183.9 46.5,-193.9 53.5,-193.9"/>
</g>
<!-- 4 -->
<g id="node5" class="node">
<title>4</title>
<path fill="none" stroke="#88d856" stroke-width="2" stroke-dasharray="5,2" d="M83.88,-324C83.88,-324 16.12,-324 16.12,-324 10.12,-324 4.12,-318 4.12,-312 4.12,-312 4.12,-300 4.12,-300 4.12,-294 10.12,-288 16.12,-288 16.12,-288 83.88,-288 83.88,-288 89.88,-288 95.88,-294 95.88,-300 95.88,-300 95.88,-312 95.88,-312 95.88,-318 89.88,-324 83.88,-324"/>
<text text-anchor="middle" x="50" y="-309.25" font-family="sans" font-size="10.00">quality_control</text>
<text text-anchor="middle" x="50" y="-296.5" font-family="sans" font-size="10.00">sample: prueba</text>
</g>
<!-- 4&#45;&gt;3 -->
<g id="edge4" class="edge">
<title>4&#45;&gt;3</title>
<path fill="none" stroke="grey" stroke-width="2" d="M50,-287.34C50,-280.75 50,-273.08 50,-265.67"/>
<polygon fill="grey" stroke="grey" stroke-width="2" points="53.5,-265.9 50,-255.9 46.5,-265.9 53.5,-265.9"/>
</g>
</g>
</svg>
