<?xml version="1.0" encoding="UTF-8" standalone="no"?>
<!DOCTYPE svg PUBLIC "-//W3C//DTD SVG 1.1//EN"
 "http://www.w3.org/Graphics/SVG/1.1/DTD/svg11.dtd">
<!-- Generated by graphviz version 8.1.0 (20230707.2238)
 -->
<!-- Title: snakemake_dag Pages: 1 -->
<svg width="351pt" height="548pt"
 viewBox="0.00 0.00 350.99 548.00" xmlns="http://www.w3.org/2000/svg" xmlns:xlink="http://www.w3.org/1999/xlink">
<g id="graph0" class="graph" transform="scale(1 1) rotate(0) translate(4 544)">
<title>snakemake_dag</title>
<polygon fill="white" stroke="none" points="-4,4 -4,-544 346.99,-544 346.99,4 -4,4"/>
<!-- 0 -->
<g id="node1" class="node">
<title>0</title>
<path fill="none" stroke="#56a9d8" stroke-width="2" d="M155.12,-36C155.12,-36 106.12,-36 106.12,-36 100.12,-36 94.12,-30 94.12,-24 94.12,-24 94.12,-12 94.12,-12 94.12,-6 100.12,0 106.12,0 106.12,0 155.12,0 155.12,0 161.12,0 167.12,-6 167.12,-12 167.12,-12 167.12,-24 167.12,-24 167.12,-30 161.12,-36 155.12,-36"/>
<text text-anchor="middle" x="130.62" y="-14.88" font-family="sans" font-size="10.00">plot_results</text>
</g>
<!-- 1 -->
<g id="node2" class="node">
<title>1</title>
<path fill="none" stroke="#56d882" stroke-width="2" d="M73.62,-180C73.62,-180 43.62,-180 43.62,-180 37.62,-180 31.62,-174 31.62,-168 31.62,-168 31.62,-156 31.62,-156 31.62,-150 37.62,-144 43.62,-144 43.62,-144 73.62,-144 73.62,-144 79.62,-144 85.62,-150 85.62,-156 85.62,-156 85.62,-168 85.62,-168 85.62,-174 79.62,-180 73.62,-180"/>
<text text-anchor="middle" x="58.62" y="-158.88" font-family="sans" font-size="10.00">results</text>
</g>
<!-- 1&#45;&gt;0 -->
<g id="edge1" class="edge">
<title>1&#45;&gt;0</title>
<path fill="none" stroke="grey" stroke-width="2" d="M67.73,-143.02C79.85,-119.12 101.41,-76.59 115.86,-48.1"/>
<polygon fill="grey" stroke="grey" stroke-width="2" points="119.17,-49.34 120.57,-38.84 112.93,-46.17 119.17,-49.34"/>
</g>
<!-- 2 -->
<g id="node3" class="node">
<title>2</title>
<path fill="none" stroke="#afd856" stroke-width="2" d="M151.62,-324C151.62,-324 75.62,-324 75.62,-324 69.62,-324 63.62,-318 63.62,-312 63.62,-312 63.62,-300 63.62,-300 63.62,-294 69.62,-288 75.62,-288 75.62,-288 151.62,-288 151.62,-288 157.62,-288 163.62,-294 163.62,-300 163.62,-300 163.62,-312 163.62,-312 163.62,-318 157.62,-324 151.62,-324"/>
<text text-anchor="middle" x="113.62" y="-302.88" font-family="sans" font-size="10.00">annotate_contigs</text>
</g>
<!-- 2&#45;&gt;1 -->
<g id="edge3" class="edge">
<title>2&#45;&gt;1</title>
<path fill="none" stroke="grey" stroke-width="2" d="M62.7,-292.93C41.2,-285.04 18.26,-272.3 5.62,-252 -2.85,-238.42 -0.51,-230.78 5.62,-216 9.69,-206.17 16.56,-197.21 24.04,-189.58"/>
<polygon fill="grey" stroke="grey" stroke-width="2" points="26.37,-192.32 31.3,-182.94 21.6,-187.2 26.37,-192.32"/>
</g>
<!-- 6 -->
<g id="node7" class="node">
<title>6</title>
<path fill="none" stroke="#d6d856" stroke-width="2" d="M90.62,-252C90.62,-252 26.62,-252 26.62,-252 20.62,-252 14.62,-246 14.62,-240 14.62,-240 14.62,-228 14.62,-228 14.62,-222 20.62,-216 26.62,-216 26.62,-216 90.62,-216 90.62,-216 96.62,-216 102.62,-222 102.62,-228 102.62,-228 102.62,-240 102.62,-240 102.62,-246 96.62,-252 90.62,-252"/>
<text text-anchor="middle" x="58.62" y="-230.88" font-family="sans" font-size="10.00">virus_mapping</text>
</g>
<!-- 2&#45;&gt;6 -->
<g id="edge8" class="edge">
<title>2&#45;&gt;6</title>
<path fill="none" stroke="grey" stroke-width="2" d="M99.74,-287.34C93.92,-279.93 87.01,-271.14 80.54,-262.9"/>
<polygon fill="grey" stroke="grey" stroke-width="2" points="82.61,-260.6 73.68,-254.9 77.11,-264.93 82.61,-260.6"/>
</g>
<!-- 11 -->
<g id="node12" class="node">
<title>11</title>
<path fill="none" stroke="#d85656" stroke-width="2" d="M204.74,-252C204.74,-252 132.49,-252 132.49,-252 126.49,-252 120.49,-246 120.49,-240 120.49,-240 120.49,-228 120.49,-228 120.49,-222 126.49,-216 132.49,-216 132.49,-216 204.74,-216 204.74,-216 210.74,-216 216.74,-222 216.74,-228 216.74,-228 216.74,-240 216.74,-240 216.74,-246 210.74,-252 204.74,-252"/>
<text text-anchor="middle" x="168.62" y="-230.88" font-family="sans" font-size="10.00">host_mapping_2</text>
</g>
<!-- 2&#45;&gt;11 -->
<g id="edge14" class="edge">
<title>2&#45;&gt;11</title>
<path fill="none" stroke="grey" stroke-width="2" d="M127.49,-287.34C133.31,-279.93 140.22,-271.14 146.69,-262.9"/>
<polygon fill="grey" stroke="grey" stroke-width="2" points="150.12,-264.93 153.55,-254.9 144.62,-260.6 150.12,-264.93"/>
</g>
<!-- 3 -->
<g id="node4" class="node">
<title>3</title>
<path fill="none" stroke="#d88556" stroke-width="2" d="M192.24,-396C192.24,-396 152.99,-396 152.99,-396 146.99,-396 140.99,-390 140.99,-384 140.99,-384 140.99,-372 140.99,-372 140.99,-366 146.99,-360 152.99,-360 152.99,-360 192.24,-360 192.24,-360 198.24,-360 204.24,-366 204.24,-372 204.24,-372 204.24,-384 204.24,-384 204.24,-390 198.24,-396 192.24,-396"/>
<text text-anchor="middle" x="172.62" y="-374.88" font-family="sans" font-size="10.00">assembly</text>
</g>
<!-- 3&#45;&gt;2 -->
<g id="edge5" class="edge">
<title>3&#45;&gt;2</title>
<path fill="none" stroke="grey" stroke-width="2" d="M157.73,-359.34C151.42,-351.85 143.91,-342.95 136.9,-334.63"/>
<polygon fill="grey" stroke="grey" stroke-width="2" points="138.83,-332.29 129.7,-326.9 133.47,-336.8 138.83,-332.29"/>
</g>
<!-- 9 -->
<g id="node10" class="node">
<title>9</title>
<path fill="none" stroke="#d8ac56" stroke-width="2" d="M296.24,-324C296.24,-324 220.99,-324 220.99,-324 214.99,-324 208.99,-318 208.99,-312 208.99,-312 208.99,-300 208.99,-300 208.99,-294 214.99,-288 220.99,-288 220.99,-288 296.24,-288 296.24,-288 302.24,-288 308.24,-294 308.24,-300 308.24,-300 308.24,-312 308.24,-312 308.24,-318 302.24,-324 296.24,-324"/>
<text text-anchor="middle" x="258.62" y="-302.88" font-family="sans" font-size="10.00">contig_clustering</text>
</g>
<!-- 3&#45;&gt;9 -->
<g id="edge12" class="edge">
<title>3&#45;&gt;9</title>
<path fill="none" stroke="grey" stroke-width="2" d="M194.32,-359.34C204.12,-351.36 215.9,-341.77 226.69,-332.99"/>
<polygon fill="grey" stroke="grey" stroke-width="2" points="229.08,-334.93 234.62,-325.9 224.66,-329.5 229.08,-334.93"/>
</g>
<!-- 4 -->
<g id="node5" class="node">
<title>4</title>
<path fill="none" stroke="#5682d8" stroke-width="2" d="M203.12,-468C203.12,-468 142.12,-468 142.12,-468 136.12,-468 130.12,-462 130.12,-456 130.12,-456 130.12,-444 130.12,-444 130.12,-438 136.12,-432 142.12,-432 142.12,-432 203.12,-432 203.12,-432 209.12,-432 215.12,-438 215.12,-444 215.12,-444 215.12,-456 215.12,-456 215.12,-462 209.12,-468 203.12,-468"/>
<text text-anchor="middle" x="172.62" y="-446.88" font-family="sans" font-size="10.00">host_mapping</text>
</g>
<!-- 4&#45;&gt;3 -->
<g id="edge6" class="edge">
<title>4&#45;&gt;3</title>
<path fill="none" stroke="grey" stroke-width="2" d="M172.62,-431.34C172.62,-424.75 172.62,-417.08 172.62,-409.67"/>
<polygon fill="grey" stroke="grey" stroke-width="2" points="176.12,-409.9 172.62,-399.9 169.12,-409.9 176.12,-409.9"/>
</g>
<!-- 5 -->
<g id="node6" class="node">
<title>5</title>
<path fill="none" stroke="#56d8d8" stroke-width="2" d="M206.49,-540C206.49,-540 138.74,-540 138.74,-540 132.74,-540 126.74,-534 126.74,-528 126.74,-528 126.74,-516 126.74,-516 126.74,-510 132.74,-504 138.74,-504 138.74,-504 206.49,-504 206.49,-504 212.49,-504 218.49,-510 218.49,-516 218.49,-516 218.49,-528 218.49,-528 218.49,-534 212.49,-540 206.49,-540"/>
<text text-anchor="middle" x="172.62" y="-525.25" font-family="sans" font-size="10.00">quality_control</text>
<text text-anchor="middle" x="172.62" y="-512.5" font-family="sans" font-size="10.00">sample: prueba</text>
</g>
<!-- 5&#45;&gt;4 -->
<g id="edge7" class="edge">
<title>5&#45;&gt;4</title>
<path fill="none" stroke="grey" stroke-width="2" d="M172.62,-503.34C172.62,-496.75 172.62,-489.08 172.62,-481.67"/>
<polygon fill="grey" stroke="grey" stroke-width="2" points="176.12,-481.9 172.62,-471.9 169.12,-481.9 176.12,-481.9"/>
</g>
<!-- 6&#45;&gt;1 -->
<g id="edge4" class="edge">
<title>6&#45;&gt;1</title>
<path fill="none" stroke="grey" stroke-width="2" d="M58.62,-215.34C58.62,-208.75 58.62,-201.08 58.62,-193.67"/>
<polygon fill="grey" stroke="grey" stroke-width="2" points="62.12,-193.9 58.62,-183.9 55.12,-193.9 62.12,-193.9"/>
</g>
<!-- 7 -->
<g id="node8" class="node">
<title>7</title>
<path fill="none" stroke="#56d8a9" stroke-width="2" d="M234.24,-108C234.24,-108 170.99,-108 170.99,-108 164.99,-108 158.99,-102 158.99,-96 158.99,-96 158.99,-84 158.99,-84 158.99,-78 164.99,-72 170.99,-72 170.99,-72 234.24,-72 234.24,-72 240.24,-72 246.24,-78 246.24,-84 246.24,-84 246.24,-96 246.24,-96 246.24,-102 240.24,-108 234.24,-108"/>
<text text-anchor="middle" x="202.62" y="-86.88" font-family="sans" font-size="10.00">results_cluster</text>
</g>
<!-- 7&#45;&gt;0 -->
<g id="edge2" class="edge">
<title>7&#45;&gt;0</title>
<path fill="none" stroke="grey" stroke-width="2" d="M184.45,-71.34C176.49,-63.6 166.98,-54.36 158.19,-45.81"/>
<polygon fill="grey" stroke="grey" stroke-width="2" points="160.64,-43.36 151.03,-38.9 155.76,-48.38 160.64,-43.36"/>
</g>
<!-- 8 -->
<g id="node9" class="node">
<title>8</title>
<path fill="none" stroke="#59d856" stroke-width="2" d="M326.12,-252C326.12,-252 247.12,-252 247.12,-252 241.12,-252 235.12,-246 235.12,-240 235.12,-240 235.12,-228 235.12,-228 235.12,-222 241.12,-216 247.12,-216 247.12,-216 326.12,-216 326.12,-216 332.12,-216 338.12,-222 338.12,-228 338.12,-228 338.12,-240 338.12,-240 338.12,-246 332.12,-252 326.12,-252"/>
<text text-anchor="middle" x="286.62" y="-230.88" font-family="sans" font-size="10.00">annotate_clusters</text>
</g>
<!-- 8&#45;&gt;7 -->
<g id="edge9" class="edge">
<title>8&#45;&gt;7</title>
<path fill="none" stroke="grey" stroke-width="2" d="M256.46,-215.01C243.87,-206.01 230.2,-194.04 221.62,-180 210.85,-162.38 206.12,-139.56 204.08,-121.43"/>
<polygon fill="grey" stroke="grey" stroke-width="2" points="207.32,-121.32 202.98,-111.66 200.35,-121.92 207.32,-121.32"/>
</g>
<!-- 10 -->
<g id="node11" class="node">
<title>10</title>
<path fill="none" stroke="#80d856" stroke-width="2" d="M330.99,-180C330.99,-180 242.24,-180 242.24,-180 236.24,-180 230.24,-174 230.24,-168 230.24,-168 230.24,-156 230.24,-156 230.24,-150 236.24,-144 242.24,-144 242.24,-144 330.99,-144 330.99,-144 336.99,-144 342.99,-150 342.99,-156 342.99,-156 342.99,-168 342.99,-168 342.99,-174 336.99,-180 330.99,-180"/>
<text text-anchor="middle" x="286.62" y="-158.88" font-family="sans" font-size="10.00">virus_mapping_clus</text>
</g>
<!-- 8&#45;&gt;10 -->
<g id="edge13" class="edge">
<title>8&#45;&gt;10</title>
<path fill="none" stroke="grey" stroke-width="2" d="M286.62,-215.34C286.62,-208.75 286.62,-201.08 286.62,-193.67"/>
<polygon fill="grey" stroke="grey" stroke-width="2" points="290.12,-193.9 286.62,-183.9 283.12,-193.9 290.12,-193.9"/>
</g>
<!-- 9&#45;&gt;8 -->
<g id="edge11" class="edge">
<title>9&#45;&gt;8</title>
<path fill="none" stroke="grey" stroke-width="2" d="M265.68,-287.34C268.41,-280.51 271.62,-272.5 274.68,-264.83"/>
<polygon fill="grey" stroke="grey" stroke-width="2" points="277.99,-265.49 278.45,-254.9 271.49,-262.89 277.99,-265.49"/>
</g>
<!-- 10&#45;&gt;7 -->
<g id="edge10" class="edge">
<title>10&#45;&gt;7</title>
<path fill="none" stroke="grey" stroke-width="2" d="M265.42,-143.34C255.84,-135.36 244.34,-125.77 233.8,-116.99"/>
<polygon fill="grey" stroke="grey" stroke-width="2" points="236.02,-113.61 226.1,-109.9 231.54,-118.99 236.02,-113.61"/>
</g>
</g>
</svg>
