<?xml version="1.0" encoding="UTF-8" standalone="no"?>
<!DOCTYPE svg PUBLIC "-//W3C//DTD SVG 1.1//EN"
 "http://www.w3.org/Graphics/SVG/1.1/DTD/svg11.dtd">
<!-- Generated by graphviz version 8.1.0 (20230707.2238)
 -->
<!-- Title: snakemake_dag Pages: 1 -->
<svg width="370pt" height="548pt"
 viewBox="0.00 0.00 369.62 548.00" xmlns="http://www.w3.org/2000/svg" xmlns:xlink="http://www.w3.org/1999/xlink">
<g id="graph0" class="graph" transform="scale(1 1) rotate(0) translate(4 544)">
<title>snakemake_dag</title>
<polygon fill="white" stroke="none" points="-4,4 -4,-544 365.62,-544 365.62,4 -4,4"/>
<!-- 0 -->
<g id="node1" class="node">
<title>0</title>
<path fill="none" stroke="#d88556" stroke-width="2" d="M84.25,-252C84.25,-252 12,-252 12,-252 6,-252 0,-246 0,-240 0,-240 0,-228 0,-228 0,-222 6,-216 12,-216 12,-216 84.25,-216 84.25,-216 90.25,-216 96.25,-222 96.25,-228 96.25,-228 96.25,-240 96.25,-240 96.25,-246 90.25,-252 84.25,-252"/>
<text text-anchor="middle" x="48.12" y="-230.88" font-family="sans" font-size="10.00">host_mapping_2</text>
</g>
<!-- 1 -->
<g id="node2" class="node">
<title>1</title>
<path fill="none" stroke="#afd856" stroke-width="2" d="M196.12,-324C196.12,-324 120.12,-324 120.12,-324 114.12,-324 108.12,-318 108.12,-312 108.12,-312 108.12,-300 108.12,-300 108.12,-294 114.12,-288 120.12,-288 120.12,-288 196.12,-288 196.12,-288 202.12,-288 208.12,-294 208.12,-300 208.12,-300 208.12,-312 208.12,-312 208.12,-318 202.12,-324 196.12,-324"/>
<text text-anchor="middle" x="158.12" y="-302.88" font-family="sans" font-size="10.00">annotate_contigs</text>
</g>
<!-- 1&#45;&gt;0 -->
<g id="edge1" class="edge">
<title>1&#45;&gt;0</title>
<path fill="none" stroke="grey" stroke-width="2" d="M130.08,-287.15C117.02,-278.84 101.27,-268.82 87.08,-259.79"/>
<polygon fill="grey" stroke="grey" stroke-width="2" points="88.43,-256.23 78.12,-253.81 84.67,-262.13 88.43,-256.23"/>
</g>
<!-- 6 -->
<g id="node7" class="node">
<title>6</title>
<path fill="none" stroke="#59d856" stroke-width="2" d="M211.12,-180C211.12,-180 181.12,-180 181.12,-180 175.12,-180 169.12,-174 169.12,-168 169.12,-168 169.12,-156 169.12,-156 169.12,-150 175.12,-144 181.12,-144 181.12,-144 211.12,-144 211.12,-144 217.12,-144 223.12,-150 223.12,-156 223.12,-156 223.12,-168 223.12,-168 223.12,-174 217.12,-180 211.12,-180"/>
<text text-anchor="middle" x="196.12" y="-158.88" font-family="sans" font-size="10.00">results</text>
</g>
<!-- 1&#45;&gt;6 -->
<g id="edge7" class="edge">
<title>1&#45;&gt;6</title>
<path fill="none" stroke="grey" stroke-width="2" d="M149.61,-287.3C142,-268.86 133.41,-239.45 143.12,-216 147.2,-206.17 154.07,-197.21 161.55,-189.58"/>
<polygon fill="grey" stroke="grey" stroke-width="2" points="163.88,-192.32 168.81,-182.94 159.11,-187.2 163.88,-192.32"/>
</g>
<!-- 7 -->
<g id="node8" class="node">
<title>7</title>
<path fill="none" stroke="#56d8a9" stroke-width="2" d="M228.12,-252C228.12,-252 164.12,-252 164.12,-252 158.12,-252 152.12,-246 152.12,-240 152.12,-240 152.12,-228 152.12,-228 152.12,-222 158.12,-216 164.12,-216 164.12,-216 228.12,-216 228.12,-216 234.12,-216 240.12,-222 240.12,-228 240.12,-228 240.12,-240 240.12,-240 240.12,-246 234.12,-252 228.12,-252"/>
<text text-anchor="middle" x="196.12" y="-230.88" font-family="sans" font-size="10.00">virus_mapping</text>
</g>
<!-- 1&#45;&gt;7 -->
<g id="edge9" class="edge">
<title>1&#45;&gt;7</title>
<path fill="none" stroke="grey" stroke-width="2" d="M167.71,-287.34C171.51,-280.34 175.98,-272.12 180.23,-264.28"/>
<polygon fill="grey" stroke="grey" stroke-width="2" points="183.71,-265.36 185.41,-254.9 177.56,-262.02 183.71,-265.36"/>
</g>
<!-- 2 -->
<g id="node3" class="node">
<title>2</title>
<path fill="none" stroke="#d8ac56" stroke-width="2" d="M236.75,-396C236.75,-396 197.5,-396 197.5,-396 191.5,-396 185.5,-390 185.5,-384 185.5,-384 185.5,-372 185.5,-372 185.5,-366 191.5,-360 197.5,-360 197.5,-360 236.75,-360 236.75,-360 242.75,-360 248.75,-366 248.75,-372 248.75,-372 248.75,-384 248.75,-384 248.75,-390 242.75,-396 236.75,-396"/>
<text text-anchor="middle" x="217.12" y="-374.88" font-family="sans" font-size="10.00">assembly</text>
</g>
<!-- 2&#45;&gt;1 -->
<g id="edge2" class="edge">
<title>2&#45;&gt;1</title>
<path fill="none" stroke="grey" stroke-width="2" d="M202.24,-359.34C195.93,-351.85 188.42,-342.95 181.41,-334.63"/>
<polygon fill="grey" stroke="grey" stroke-width="2" points="183.33,-332.29 174.21,-326.9 177.98,-336.8 183.33,-332.29"/>
</g>
<!-- 11 -->
<g id="node12" class="node">
<title>11</title>
<path fill="none" stroke="#56a9d8" stroke-width="2" d="M330.75,-324C330.75,-324 255.5,-324 255.5,-324 249.5,-324 243.5,-318 243.5,-312 243.5,-312 243.5,-300 243.5,-300 243.5,-294 249.5,-288 255.5,-288 255.5,-288 330.75,-288 330.75,-288 336.75,-288 342.75,-294 342.75,-300 342.75,-300 342.75,-312 342.75,-312 342.75,-318 336.75,-324 330.75,-324"/>
<text text-anchor="middle" x="293.12" y="-302.88" font-family="sans" font-size="10.00">contig_clustering</text>
</g>
<!-- 2&#45;&gt;11 -->
<g id="edge13" class="edge">
<title>2&#45;&gt;11</title>
<path fill="none" stroke="grey" stroke-width="2" d="M236.3,-359.34C244.79,-351.52 254.95,-342.16 264.32,-333.53"/>
<polygon fill="grey" stroke="grey" stroke-width="2" points="266.7,-336.25 271.69,-326.9 261.96,-331.1 266.7,-336.25"/>
</g>
<!-- 3 -->
<g id="node4" class="node">
<title>3</title>
<path fill="none" stroke="#56d882" stroke-width="2" d="M247.62,-468C247.62,-468 186.62,-468 186.62,-468 180.62,-468 174.62,-462 174.62,-456 174.62,-456 174.62,-444 174.62,-444 174.62,-438 180.62,-432 186.62,-432 186.62,-432 247.62,-432 247.62,-432 253.62,-432 259.62,-438 259.62,-444 259.62,-444 259.62,-456 259.62,-456 259.62,-462 253.62,-468 247.62,-468"/>
<text text-anchor="middle" x="217.12" y="-446.88" font-family="sans" font-size="10.00">host_mapping</text>
</g>
<!-- 3&#45;&gt;2 -->
<g id="edge3" class="edge">
<title>3&#45;&gt;2</title>
<path fill="none" stroke="grey" stroke-width="2" d="M217.12,-431.34C217.12,-424.75 217.12,-417.08 217.12,-409.67"/>
<polygon fill="grey" stroke="grey" stroke-width="2" points="220.63,-409.9 217.12,-399.9 213.63,-409.9 220.63,-409.9"/>
</g>
<!-- 4 -->
<g id="node5" class="node">
<title>4</title>
<path fill="none" stroke="#d85656" stroke-width="2" d="M251,-540C251,-540 183.25,-540 183.25,-540 177.25,-540 171.25,-534 171.25,-528 171.25,-528 171.25,-516 171.25,-516 171.25,-510 177.25,-504 183.25,-504 183.25,-504 251,-504 251,-504 257,-504 263,-510 263,-516 263,-516 263,-528 263,-528 263,-534 257,-540 251,-540"/>
<text text-anchor="middle" x="217.12" y="-525.25" font-family="sans" font-size="10.00">quality_control</text>
<text text-anchor="middle" x="217.12" y="-512.5" font-family="sans" font-size="10.00">sample: prueba</text>
</g>
<!-- 4&#45;&gt;3 -->
<g id="edge4" class="edge">
<title>4&#45;&gt;3</title>
<path fill="none" stroke="grey" stroke-width="2" d="M217.12,-503.34C217.12,-496.75 217.12,-489.08 217.12,-481.67"/>
<polygon fill="grey" stroke="grey" stroke-width="2" points="220.63,-481.9 217.12,-471.9 213.63,-481.9 220.63,-481.9"/>
</g>
<!-- 5 -->
<g id="node6" class="node">
<title>5</title>
<path fill="none" stroke="#80d856" stroke-width="2" d="M270.62,-36C270.62,-36 221.62,-36 221.62,-36 215.62,-36 209.62,-30 209.62,-24 209.62,-24 209.62,-12 209.62,-12 209.62,-6 215.62,0 221.62,0 221.62,0 270.62,0 270.62,0 276.62,0 282.62,-6 282.62,-12 282.62,-12 282.62,-24 282.62,-24 282.62,-30 276.62,-36 270.62,-36"/>
<text text-anchor="middle" x="246.12" y="-14.88" font-family="sans" font-size="10.00">plot_results</text>
</g>
<!-- 6&#45;&gt;5 -->
<g id="edge5" class="edge">
<title>6&#45;&gt;5</title>
<path fill="none" stroke="grey" stroke-width="2" d="M202.46,-143.02C210.8,-119.33 225.58,-77.35 235.61,-48.86"/>
<polygon fill="grey" stroke="grey" stroke-width="2" points="238.82,-49.43 238.84,-38.84 232.22,-47.11 238.82,-49.43"/>
</g>
<!-- 7&#45;&gt;6 -->
<g id="edge8" class="edge">
<title>7&#45;&gt;6</title>
<path fill="none" stroke="grey" stroke-width="2" d="M196.12,-215.34C196.12,-208.75 196.12,-201.08 196.12,-193.67"/>
<polygon fill="grey" stroke="grey" stroke-width="2" points="199.63,-193.9 196.12,-183.9 192.63,-193.9 199.63,-193.9"/>
</g>
<!-- 8 -->
<g id="node9" class="node">
<title>8</title>
<path fill="none" stroke="#d6d856" stroke-width="2" d="M320.75,-108C320.75,-108 257.5,-108 257.5,-108 251.5,-108 245.5,-102 245.5,-96 245.5,-96 245.5,-84 245.5,-84 245.5,-78 251.5,-72 257.5,-72 257.5,-72 320.75,-72 320.75,-72 326.75,-72 332.75,-78 332.75,-84 332.75,-84 332.75,-96 332.75,-96 332.75,-102 326.75,-108 320.75,-108"/>
<text text-anchor="middle" x="289.12" y="-86.88" font-family="sans" font-size="10.00">results_cluster</text>
</g>
<!-- 8&#45;&gt;5 -->
<g id="edge6" class="edge">
<title>8&#45;&gt;5</title>
<path fill="none" stroke="grey" stroke-width="2" d="M278.27,-71.34C273.88,-64.18 268.69,-55.73 263.77,-47.73"/>
<polygon fill="grey" stroke="grey" stroke-width="2" points="266.34,-45.59 258.12,-38.9 260.37,-49.25 266.34,-45.59"/>
</g>
<!-- 9 -->
<g id="node10" class="node">
<title>9</title>
<path fill="none" stroke="#5682d8" stroke-width="2" d="M347.5,-180C347.5,-180 258.75,-180 258.75,-180 252.75,-180 246.75,-174 246.75,-168 246.75,-168 246.75,-156 246.75,-156 246.75,-150 252.75,-144 258.75,-144 258.75,-144 347.5,-144 347.5,-144 353.5,-144 359.5,-150 359.5,-156 359.5,-156 359.5,-168 359.5,-168 359.5,-174 353.5,-180 347.5,-180"/>
<text text-anchor="middle" x="303.12" y="-158.88" font-family="sans" font-size="10.00">virus_mapping_clus</text>
</g>
<!-- 9&#45;&gt;8 -->
<g id="edge10" class="edge">
<title>9&#45;&gt;8</title>
<path fill="none" stroke="grey" stroke-width="2" d="M299.59,-143.34C298.26,-136.67 296.7,-128.89 295.2,-121.39"/>
<polygon fill="grey" stroke="grey" stroke-width="2" points="298.1,-120.02 292.71,-110.9 291.23,-121.39 298.1,-120.02"/>
</g>
<!-- 10 -->
<g id="node11" class="node">
<title>10</title>
<path fill="none" stroke="#56d8d8" stroke-width="2" d="M349.62,-252C349.62,-252 270.62,-252 270.62,-252 264.62,-252 258.62,-246 258.62,-240 258.62,-240 258.62,-228 258.62,-228 258.62,-222 264.62,-216 270.62,-216 270.62,-216 349.62,-216 349.62,-216 355.62,-216 361.62,-222 361.62,-228 361.62,-228 361.62,-240 361.62,-240 361.62,-246 355.62,-252 349.62,-252"/>
<text text-anchor="middle" x="310.12" y="-230.88" font-family="sans" font-size="10.00">annotate_clusters</text>
</g>
<!-- 10&#45;&gt;9 -->
<g id="edge11" class="edge">
<title>10&#45;&gt;9</title>
<path fill="none" stroke="grey" stroke-width="2" d="M308.36,-215.34C307.7,-208.75 306.93,-201.08 306.19,-193.67"/>
<polygon fill="grey" stroke="grey" stroke-width="2" points="309.39,-193.5 304.92,-183.9 302.43,-194.2 309.39,-193.5"/>
</g>
<!-- 11&#45;&gt;10 -->
<g id="edge12" class="edge">
<title>11&#45;&gt;10</title>
<path fill="none" stroke="grey" stroke-width="2" d="M297.41,-287.34C299.03,-280.67 300.92,-272.89 302.74,-265.39"/>
<polygon fill="grey" stroke="grey" stroke-width="2" points="306.82,-265.45 305.78,-254.9 300.02,-263.79 306.82,-265.45"/>
</g>
</g>
</svg>
