<?xml version="1.0" encoding="UTF-8" standalone="no"?>
<!DOCTYPE svg PUBLIC "-//W3C//DTD SVG 1.1//EN"
 "http://www.w3.org/Graphics/SVG/1.1/DTD/svg11.dtd">
<!-- Generated by graphviz version 8.1.0 (20230707.2238)
 -->
<!-- Title: snakemake_dag Pages: 1 -->
<svg width="367pt" height="548pt"
 viewBox="0.00 0.00 366.71 548.00" xmlns="http://www.w3.org/2000/svg" xmlns:xlink="http://www.w3.org/1999/xlink">
<g id="graph0" class="graph" transform="scale(1 1) rotate(0) translate(4 544)">
<title>snakemake_dag</title>
<polygon fill="white" stroke="none" points="-4,4 -4,-544 362.71,-544 362.71,4 -4,4"/>
<!-- 0 -->
<g id="node1" class="node">
<title>0</title>
<path fill="none" stroke="#d87d56" stroke-width="2" d="M214.84,-36C214.84,-36 165.84,-36 165.84,-36 159.84,-36 153.84,-30 153.84,-24 153.84,-24 153.84,-12 153.84,-12 153.84,-6 159.84,0 165.84,0 165.84,0 214.84,0 214.84,0 220.84,0 226.84,-6 226.84,-12 226.84,-12 226.84,-24 226.84,-24 226.84,-30 220.84,-36 214.84,-36"/>
<text text-anchor="middle" x="190.34" y="-14.88" font-family="sans" font-size="10.00">plot_results</text>
</g>
<!-- 1 -->
<g id="node2" class="node">
<title>1</title>
<path fill="none" stroke="#56d8c9" stroke-width="2" d="M169.34,-180C169.34,-180 139.34,-180 139.34,-180 133.34,-180 127.34,-174 127.34,-168 127.34,-168 127.34,-156 127.34,-156 127.34,-150 133.34,-144 139.34,-144 139.34,-144 169.34,-144 169.34,-144 175.34,-144 181.34,-150 181.34,-156 181.34,-156 181.34,-168 181.34,-168 181.34,-174 175.34,-180 169.34,-180"/>
<text text-anchor="middle" x="154.34" y="-158.88" font-family="sans" font-size="10.00">results</text>
</g>
<!-- 1&#45;&gt;0 -->
<g id="edge1" class="edge">
<title>1&#45;&gt;0</title>
<path fill="none" stroke="grey" stroke-width="2" d="M157.6,-143.15C161.03,-125.09 166.83,-96.43 173.34,-72 175.35,-64.44 177.79,-56.35 180.19,-48.84"/>
<polygon fill="grey" stroke="grey" stroke-width="2" points="184.43,-49.13 184.22,-38.54 177.78,-46.95 184.43,-49.13"/>
</g>
<!-- 12 -->
<g id="node13" class="node">
<title>12</title>
<path fill="none" stroke="#78d856" stroke-width="2" d="M82.84,-108C82.84,-108 39.84,-108 39.84,-108 33.84,-108 27.84,-102 27.84,-96 27.84,-96 27.84,-84 27.84,-84 27.84,-78 33.84,-72 39.84,-72 39.84,-72 82.84,-72 82.84,-72 88.84,-72 94.84,-78 94.84,-84 94.84,-84 94.84,-96 94.84,-96 94.84,-102 88.84,-108 82.84,-108"/>
<text text-anchor="middle" x="61.34" y="-86.88" font-family="sans" font-size="10.00">results_int</text>
</g>
<!-- 1&#45;&gt;12 -->
<g id="edge17" class="edge">
<title>1&#45;&gt;12</title>
<path fill="none" stroke="grey" stroke-width="2" d="M130.87,-143.34C120.16,-135.27 107.26,-125.57 95.5,-116.72"/>
<polygon fill="grey" stroke="grey" stroke-width="2" points="97.21,-113.12 87.12,-109.9 93,-118.71 97.21,-113.12"/>
</g>
<!-- 2 -->
<g id="node3" class="node">
<title>2</title>
<path fill="none" stroke="#d8a456" stroke-width="2" d="M152.34,-324C152.34,-324 76.34,-324 76.34,-324 70.34,-324 64.34,-318 64.34,-312 64.34,-312 64.34,-300 64.34,-300 64.34,-294 70.34,-288 76.34,-288 76.34,-288 152.34,-288 152.34,-288 158.34,-288 164.34,-294 164.34,-300 164.34,-300 164.34,-312 164.34,-312 164.34,-318 158.34,-324 152.34,-324"/>
<text text-anchor="middle" x="114.34" y="-302.88" font-family="sans" font-size="10.00">annotate_contigs</text>
</g>
<!-- 2&#45;&gt;1 -->
<g id="edge3" class="edge">
<title>2&#45;&gt;1</title>
<path fill="none" stroke="grey" stroke-width="2" d="M139.65,-287.06C150.33,-277.92 161.61,-265.83 167.34,-252 175.09,-233.28 171.65,-210.68 166.36,-192.94"/>
<polygon fill="grey" stroke="grey" stroke-width="2" points="168.75,-191.08 162.22,-182.73 162.12,-193.33 168.75,-191.08"/>
</g>
<!-- 6 -->
<g id="node7" class="node">
<title>6</title>
<path fill="none" stroke="#59d856" stroke-width="2" d="M146.34,-252C146.34,-252 82.34,-252 82.34,-252 76.34,-252 70.34,-246 70.34,-240 70.34,-240 70.34,-228 70.34,-228 70.34,-222 76.34,-216 82.34,-216 82.34,-216 146.34,-216 146.34,-216 152.34,-216 158.34,-222 158.34,-228 158.34,-228 158.34,-240 158.34,-240 158.34,-246 152.34,-252 146.34,-252"/>
<text text-anchor="middle" x="114.34" y="-230.88" font-family="sans" font-size="10.00">virus_mapping</text>
</g>
<!-- 2&#45;&gt;6 -->
<g id="edge8" class="edge">
<title>2&#45;&gt;6</title>
<path fill="none" stroke="grey" stroke-width="2" d="M114.34,-287.34C114.34,-280.75 114.34,-273.08 114.34,-265.67"/>
<polygon fill="grey" stroke="grey" stroke-width="2" points="117.84,-265.9 114.34,-255.9 110.84,-265.9 117.84,-265.9"/>
</g>
<!-- 2&#45;&gt;12 -->
<g id="edge15" class="edge">
<title>2&#45;&gt;12</title>
<path fill="none" stroke="grey" stroke-width="2" d="M88.94,-287.15C60.97,-265.6 18.14,-226.41 4.34,-180 -0.23,-164.66 -2.05,-158.67 4.34,-144 8.76,-133.85 16.19,-124.77 24.25,-117.11"/>
<polygon fill="grey" stroke="grey" stroke-width="2" points="26.59,-118.98 31.86,-109.79 22.01,-113.69 26.59,-118.98"/>
</g>
<!-- 13 -->
<g id="node14" class="node">
<title>13</title>
<path fill="none" stroke="#56d8a2" stroke-width="2" d="M97.46,-180C97.46,-180 25.21,-180 25.21,-180 19.21,-180 13.21,-174 13.21,-168 13.21,-168 13.21,-156 13.21,-156 13.21,-150 19.21,-144 25.21,-144 25.21,-144 97.46,-144 97.46,-144 103.46,-144 109.46,-150 109.46,-156 109.46,-156 109.46,-168 109.46,-168 109.46,-174 103.46,-180 97.46,-180"/>
<text text-anchor="middle" x="61.34" y="-158.88" font-family="sans" font-size="10.00">host_mapping_2</text>
</g>
<!-- 2&#45;&gt;13 -->
<g id="edge18" class="edge">
<title>2&#45;&gt;13</title>
<path fill="none" stroke="grey" stroke-width="2" d="M89.02,-287.06C78.34,-277.92 67.06,-265.83 61.34,-252 53.74,-233.66 53.77,-211.32 55.68,-193.6"/>
<polygon fill="grey" stroke="grey" stroke-width="2" points="59.55,-193.22 57.46,-182.83 52.61,-192.25 59.55,-193.22"/>
</g>
<!-- 3 -->
<g id="node4" class="node">
<title>3</title>
<path fill="none" stroke="#56d87b" stroke-width="2" d="M192.96,-396C192.96,-396 153.71,-396 153.71,-396 147.71,-396 141.71,-390 141.71,-384 141.71,-384 141.71,-372 141.71,-372 141.71,-366 147.71,-360 153.71,-360 153.71,-360 192.96,-360 192.96,-360 198.96,-360 204.96,-366 204.96,-372 204.96,-372 204.96,-384 204.96,-384 204.96,-390 198.96,-396 192.96,-396"/>
<text text-anchor="middle" x="173.34" y="-374.88" font-family="sans" font-size="10.00">assembly</text>
</g>
<!-- 3&#45;&gt;2 -->
<g id="edge5" class="edge">
<title>3&#45;&gt;2</title>
<path fill="none" stroke="grey" stroke-width="2" d="M158.45,-359.34C152.14,-351.85 144.63,-342.95 137.62,-334.63"/>
<polygon fill="grey" stroke="grey" stroke-width="2" points="139.55,-332.29 130.42,-326.9 134.19,-336.8 139.55,-332.29"/>
</g>
<!-- 9 -->
<g id="node10" class="node">
<title>9</title>
<path fill="none" stroke="#c6d856" stroke-width="2" d="M286.96,-324C286.96,-324 211.71,-324 211.71,-324 205.71,-324 199.71,-318 199.71,-312 199.71,-312 199.71,-300 199.71,-300 199.71,-294 205.71,-288 211.71,-288 211.71,-288 286.96,-288 286.96,-288 292.96,-288 298.96,-294 298.96,-300 298.96,-300 298.96,-312 298.96,-312 298.96,-318 292.96,-324 286.96,-324"/>
<text text-anchor="middle" x="249.34" y="-302.88" font-family="sans" font-size="10.00">contig_clustering</text>
</g>
<!-- 3&#45;&gt;9 -->
<g id="edge12" class="edge">
<title>3&#45;&gt;9</title>
<path fill="none" stroke="grey" stroke-width="2" d="M192.51,-359.34C201,-351.52 211.16,-342.16 220.53,-333.53"/>
<polygon fill="grey" stroke="grey" stroke-width="2" points="222.92,-336.25 227.9,-326.9 218.17,-331.1 222.92,-336.25"/>
</g>
<!-- 4 -->
<g id="node5" class="node">
<title>4</title>
<path fill="none" stroke="#567bd8" stroke-width="2" d="M203.84,-468C203.84,-468 142.84,-468 142.84,-468 136.84,-468 130.84,-462 130.84,-456 130.84,-456 130.84,-444 130.84,-444 130.84,-438 136.84,-432 142.84,-432 142.84,-432 203.84,-432 203.84,-432 209.84,-432 215.84,-438 215.84,-444 215.84,-444 215.84,-456 215.84,-456 215.84,-462 209.84,-468 203.84,-468"/>
<text text-anchor="middle" x="173.34" y="-446.88" font-family="sans" font-size="10.00">host_mapping</text>
</g>
<!-- 4&#45;&gt;3 -->
<g id="edge6" class="edge">
<title>4&#45;&gt;3</title>
<path fill="none" stroke="grey" stroke-width="2" d="M173.34,-431.34C173.34,-424.75 173.34,-417.08 173.34,-409.67"/>
<polygon fill="grey" stroke="grey" stroke-width="2" points="176.84,-409.9 173.34,-399.9 169.84,-409.9 176.84,-409.9"/>
</g>
<!-- 5 -->
<g id="node6" class="node">
<title>5</title>
<path fill="none" stroke="#56c9d8" stroke-width="2" d="M207.21,-540C207.21,-540 139.46,-540 139.46,-540 133.46,-540 127.46,-534 127.46,-528 127.46,-528 127.46,-516 127.46,-516 127.46,-510 133.46,-504 139.46,-504 139.46,-504 207.21,-504 207.21,-504 213.21,-504 219.21,-510 219.21,-516 219.21,-516 219.21,-528 219.21,-528 219.21,-534 213.21,-540 207.21,-540"/>
<text text-anchor="middle" x="173.34" y="-525.25" font-family="sans" font-size="10.00">quality_control</text>
<text text-anchor="middle" x="173.34" y="-512.5" font-family="sans" font-size="10.00">sample: prueba</text>
</g>
<!-- 5&#45;&gt;4 -->
<g id="edge7" class="edge">
<title>5&#45;&gt;4</title>
<path fill="none" stroke="grey" stroke-width="2" d="M173.34,-503.34C173.34,-496.75 173.34,-489.08 173.34,-481.67"/>
<polygon fill="grey" stroke="grey" stroke-width="2" points="176.84,-481.9 173.34,-471.9 169.84,-481.9 176.84,-481.9"/>
</g>
<!-- 6&#45;&gt;1 -->
<g id="edge4" class="edge">
<title>6&#45;&gt;1</title>
<path fill="none" stroke="grey" stroke-width="2" d="M124.43,-215.34C128.47,-208.26 133.24,-199.92 137.76,-192"/>
<polygon fill="grey" stroke="grey" stroke-width="2" points="141.18,-193.32 143.11,-182.9 135.11,-189.85 141.18,-193.32"/>
</g>
<!-- 7 -->
<g id="node8" class="node">
<title>7</title>
<path fill="none" stroke="#d8c356" stroke-width="2" d="M257.96,-108C257.96,-108 194.71,-108 194.71,-108 188.71,-108 182.71,-102 182.71,-96 182.71,-96 182.71,-84 182.71,-84 182.71,-78 188.71,-72 194.71,-72 194.71,-72 257.96,-72 257.96,-72 263.96,-72 269.96,-78 269.96,-84 269.96,-84 269.96,-96 269.96,-96 269.96,-102 263.96,-108 257.96,-108"/>
<text text-anchor="middle" x="226.34" y="-86.88" font-family="sans" font-size="10.00">results_cluster</text>
</g>
<!-- 7&#45;&gt;0 -->
<g id="edge2" class="edge">
<title>7&#45;&gt;0</title>
<path fill="none" stroke="grey" stroke-width="2" d="M217.25,-71.34C213.66,-64.34 209.42,-56.12 205.39,-48.28"/>
<polygon fill="grey" stroke="grey" stroke-width="2" points="208.23,-46.19 200.54,-38.9 202,-49.4 208.23,-46.19"/>
</g>
<!-- 8 -->
<g id="node9" class="node">
<title>8</title>
<path fill="none" stroke="#56a2d8" stroke-width="2" d="M305.84,-252C305.84,-252 226.84,-252 226.84,-252 220.84,-252 214.84,-246 214.84,-240 214.84,-240 214.84,-228 214.84,-228 214.84,-222 220.84,-216 226.84,-216 226.84,-216 305.84,-216 305.84,-216 311.84,-216 317.84,-222 317.84,-228 317.84,-228 317.84,-240 317.84,-240 317.84,-246 311.84,-252 305.84,-252"/>
<text text-anchor="middle" x="266.34" y="-230.88" font-family="sans" font-size="10.00">annotate_clusters</text>
</g>
<!-- 8&#45;&gt;7 -->
<g id="edge9" class="edge">
<title>8&#45;&gt;7</title>
<path fill="none" stroke="grey" stroke-width="2" d="M254.34,-215.13C248.25,-205.2 241.33,-192.38 237.34,-180 231.27,-161.18 228.51,-139.12 227.28,-121.67"/>
<polygon fill="grey" stroke="grey" stroke-width="2" points="230.62,-121.61 226.58,-111.82 223.63,-121.99 230.62,-121.61"/>
</g>
<!-- 10 -->
<g id="node11" class="node">
<title>10</title>
<path fill="none" stroke="#9fd856" stroke-width="2" d="M346.71,-180C346.71,-180 257.96,-180 257.96,-180 251.96,-180 245.96,-174 245.96,-168 245.96,-168 245.96,-156 245.96,-156 245.96,-150 251.96,-144 257.96,-144 257.96,-144 346.71,-144 346.71,-144 352.71,-144 358.71,-150 358.71,-156 358.71,-156 358.71,-168 358.71,-168 358.71,-174 352.71,-180 346.71,-180"/>
<text text-anchor="middle" x="302.34" y="-158.88" font-family="sans" font-size="10.00">virus_mapping_clus</text>
</g>
<!-- 8&#45;&gt;10 -->
<g id="edge13" class="edge">
<title>8&#45;&gt;10</title>
<path fill="none" stroke="grey" stroke-width="2" d="M275.42,-215.34C279.02,-208.34 283.25,-200.12 287.28,-192.28"/>
<polygon fill="grey" stroke="grey" stroke-width="2" points="290.67,-193.4 292.13,-182.9 284.44,-190.19 290.67,-193.4"/>
</g>
<!-- 9&#45;&gt;8 -->
<g id="edge11" class="edge">
<title>9&#45;&gt;8</title>
<path fill="none" stroke="grey" stroke-width="2" d="M253.63,-287.34C255.24,-280.67 257.13,-272.89 258.96,-265.39"/>
<polygon fill="grey" stroke="grey" stroke-width="2" points="263.03,-265.45 261.99,-254.9 256.23,-263.79 263.03,-265.45"/>
</g>
<!-- 10&#45;&gt;7 -->
<g id="edge10" class="edge">
<title>10&#45;&gt;7</title>
<path fill="none" stroke="grey" stroke-width="2" d="M283.16,-143.34C274.67,-135.52 264.51,-126.16 255.14,-117.53"/>
<polygon fill="grey" stroke="grey" stroke-width="2" points="257.5,-115.1 247.77,-110.9 252.76,-120.25 257.5,-115.1"/>
</g>
<!-- 11 -->
<g id="node12" class="node">
<title>11</title>
<path fill="none" stroke="#d85656" stroke-width="2" d="M76.34,-36C76.34,-36 46.34,-36 46.34,-36 40.34,-36 34.34,-30 34.34,-24 34.34,-24 34.34,-12 34.34,-12 34.34,-6 40.34,0 46.34,0 46.34,0 76.34,0 76.34,0 82.34,0 88.34,-6 88.34,-12 88.34,-12 88.34,-24 88.34,-24 88.34,-30 82.34,-36 76.34,-36"/>
<text text-anchor="middle" x="61.34" y="-14.88" font-family="sans" font-size="10.00">plot_int</text>
</g>
<!-- 12&#45;&gt;11 -->
<g id="edge14" class="edge">
<title>12&#45;&gt;11</title>
<path fill="none" stroke="grey" stroke-width="2" d="M61.34,-71.34C61.34,-64.75 61.34,-57.08 61.34,-49.67"/>
<polygon fill="grey" stroke="grey" stroke-width="2" points="64.84,-49.9 61.34,-39.9 57.84,-49.9 64.84,-49.9"/>
</g>
<!-- 13&#45;&gt;12 -->
<g id="edge16" class="edge">
<title>13&#45;&gt;12</title>
<path fill="none" stroke="grey" stroke-width="2" d="M61.34,-143.34C61.34,-136.75 61.34,-129.08 61.34,-121.67"/>
<polygon fill="grey" stroke="grey" stroke-width="2" points="64.84,-121.9 61.34,-111.9 57.84,-121.9 64.84,-121.9"/>
</g>
</g>
</svg>
