<?xml version="1.0" encoding="UTF-8" standalone="no"?>
<!DOCTYPE svg PUBLIC "-//W3C//DTD SVG 1.1//EN"
 "http://www.w3.org/Graphics/SVG/1.1/DTD/svg11.dtd">
<!-- Generated by graphviz version 8.1.0 (20230707.2238)
 -->
<!-- Title: snakemake_dag Pages: 1 -->
<svg width="389pt" height="548pt"
 viewBox="0.00 0.00 389.15 548.00" xmlns="http://www.w3.org/2000/svg" xmlns:xlink="http://www.w3.org/1999/xlink">
<g id="graph0" class="graph" transform="scale(1 1) rotate(0) translate(4 544)">
<title>snakemake_dag</title>
<polygon fill="white" stroke="none" points="-4,4 -4,-544 385.15,-544 385.15,4 -4,4"/>
<!-- 0 -->
<g id="node1" class="node">
<title>0</title>
<path fill="none" stroke="#56d87b" stroke-width="2" d="M181.28,-36C181.28,-36 132.28,-36 132.28,-36 126.28,-36 120.28,-30 120.28,-24 120.28,-24 120.28,-12 120.28,-12 120.28,-6 126.28,0 132.28,0 132.28,0 181.28,0 181.28,0 187.28,0 193.28,-6 193.28,-12 193.28,-12 193.28,-24 193.28,-24 193.28,-30 187.28,-36 181.28,-36"/>
<text text-anchor="middle" x="156.78" y="-14.88" font-family="sans" font-size="10.00">plot_results</text>
</g>
<!-- 1 -->
<g id="node2" class="node">
<title>1</title>
<path fill="none" stroke="#78d856" stroke-width="2" d="M73.78,-180C73.78,-180 43.78,-180 43.78,-180 37.78,-180 31.78,-174 31.78,-168 31.78,-168 31.78,-156 31.78,-156 31.78,-150 37.78,-144 43.78,-144 43.78,-144 73.78,-144 73.78,-144 79.78,-144 85.78,-150 85.78,-156 85.78,-156 85.78,-168 85.78,-168 85.78,-174 79.78,-180 73.78,-180"/>
<text text-anchor="middle" x="58.78" y="-158.88" font-family="sans" font-size="10.00">results</text>
</g>
<!-- 1&#45;&gt;0 -->
<g id="edge1" class="edge">
<title>1&#45;&gt;0</title>
<path fill="none" stroke="grey" stroke-width="2" d="M67.27,-143.24C76.44,-124.75 92.01,-95.3 108.78,-72 115.17,-63.12 122.85,-54.07 130.18,-46.02"/>
<polygon fill="grey" stroke="grey" stroke-width="2" points="132.55,-48.47 136.83,-38.78 127.44,-43.69 132.55,-48.47"/>
</g>
<!-- 2 -->
<g id="node3" class="node">
<title>2</title>
<path fill="none" stroke="#56a2d8" stroke-width="2" d="M168.78,-324C168.78,-324 92.78,-324 92.78,-324 86.78,-324 80.78,-318 80.78,-312 80.78,-312 80.78,-300 80.78,-300 80.78,-294 86.78,-288 92.78,-288 92.78,-288 168.78,-288 168.78,-288 174.78,-288 180.78,-294 180.78,-300 180.78,-300 180.78,-312 180.78,-312 180.78,-318 174.78,-324 168.78,-324"/>
<text text-anchor="middle" x="130.78" y="-302.88" font-family="sans" font-size="10.00">annotate_contigs</text>
</g>
<!-- 2&#45;&gt;1 -->
<g id="edge3" class="edge">
<title>2&#45;&gt;1</title>
<path fill="none" stroke="grey" stroke-width="2" d="M79.82,-297.12C52.96,-290.09 22.24,-276.86 5.78,-252 -3.06,-238.66 -0.34,-230.78 5.78,-216 9.85,-206.17 16.73,-197.21 24.2,-189.58"/>
<polygon fill="grey" stroke="grey" stroke-width="2" points="26.54,-192.32 31.47,-182.94 21.76,-187.2 26.54,-192.32"/>
</g>
<!-- 6 -->
<g id="node7" class="node">
<title>6</title>
<path fill="none" stroke="#567bd8" stroke-width="2" d="M90.78,-252C90.78,-252 26.78,-252 26.78,-252 20.78,-252 14.78,-246 14.78,-240 14.78,-240 14.78,-228 14.78,-228 14.78,-222 20.78,-216 26.78,-216 26.78,-216 90.78,-216 90.78,-216 96.78,-216 102.78,-222 102.78,-228 102.78,-228 102.78,-240 102.78,-240 102.78,-246 96.78,-252 90.78,-252"/>
<text text-anchor="middle" x="58.78" y="-230.88" font-family="sans" font-size="10.00">virus_mapping</text>
</g>
<!-- 2&#45;&gt;6 -->
<g id="edge8" class="edge">
<title>2&#45;&gt;6</title>
<path fill="none" stroke="grey" stroke-width="2" d="M112.61,-287.34C104.66,-279.6 95.15,-270.36 86.35,-261.81"/>
<polygon fill="grey" stroke="grey" stroke-width="2" points="88.8,-259.36 79.19,-254.9 83.92,-264.38 88.8,-259.36"/>
</g>
<!-- 11 -->
<g id="node12" class="node">
<title>11</title>
<path fill="none" stroke="#59d856" stroke-width="2" d="M166.28,-180C166.28,-180 123.28,-180 123.28,-180 117.28,-180 111.28,-174 111.28,-168 111.28,-168 111.28,-156 111.28,-156 111.28,-150 117.28,-144 123.28,-144 123.28,-144 166.28,-144 166.28,-144 172.28,-144 178.28,-150 178.28,-156 178.28,-156 178.28,-168 178.28,-168 178.28,-174 172.28,-180 166.28,-180"/>
<text text-anchor="middle" x="144.78" y="-158.88" font-family="sans" font-size="10.00">results_int</text>
</g>
<!-- 2&#45;&gt;11 -->
<g id="edge14" class="edge">
<title>2&#45;&gt;11</title>
<path fill="none" stroke="grey" stroke-width="2" d="M132.55,-287.02C134.87,-263.54 138.95,-222.11 141.76,-193.64"/>
<polygon fill="grey" stroke="grey" stroke-width="2" points="145.52,-194.13 143.02,-183.84 138.56,-193.45 145.52,-194.13"/>
</g>
<!-- 12 -->
<g id="node13" class="node">
<title>12</title>
<path fill="none" stroke="#c6d856" stroke-width="2" d="M242.9,-252C242.9,-252 170.65,-252 170.65,-252 164.65,-252 158.65,-246 158.65,-240 158.65,-240 158.65,-228 158.65,-228 158.65,-222 164.65,-216 170.65,-216 170.65,-216 242.9,-216 242.9,-216 248.9,-216 254.9,-222 254.9,-228 254.9,-228 254.9,-240 254.9,-240 254.9,-246 248.9,-252 242.9,-252"/>
<text text-anchor="middle" x="206.78" y="-230.88" font-family="sans" font-size="10.00">host_mapping_2</text>
</g>
<!-- 2&#45;&gt;12 -->
<g id="edge16" class="edge">
<title>2&#45;&gt;12</title>
<path fill="none" stroke="grey" stroke-width="2" d="M149.96,-287.34C158.44,-279.52 168.6,-270.16 177.97,-261.53"/>
<polygon fill="grey" stroke="grey" stroke-width="2" points="180.36,-264.25 185.34,-254.9 175.62,-259.1 180.36,-264.25"/>
</g>
<!-- 3 -->
<g id="node4" class="node">
<title>3</title>
<path fill="none" stroke="#d85656" stroke-width="2" d="M209.4,-396C209.4,-396 170.15,-396 170.15,-396 164.15,-396 158.15,-390 158.15,-384 158.15,-384 158.15,-372 158.15,-372 158.15,-366 164.15,-360 170.15,-360 170.15,-360 209.4,-360 209.4,-360 215.4,-360 221.4,-366 221.4,-372 221.4,-372 221.4,-384 221.4,-384 221.4,-390 215.4,-396 209.4,-396"/>
<text text-anchor="middle" x="189.78" y="-374.88" font-family="sans" font-size="10.00">assembly</text>
</g>
<!-- 3&#45;&gt;2 -->
<g id="edge5" class="edge">
<title>3&#45;&gt;2</title>
<path fill="none" stroke="grey" stroke-width="2" d="M174.89,-359.34C168.58,-351.85 161.08,-342.95 154.06,-334.63"/>
<polygon fill="grey" stroke="grey" stroke-width="2" points="155.99,-332.29 146.87,-326.9 150.64,-336.8 155.99,-332.29"/>
</g>
<!-- 9 -->
<g id="node10" class="node">
<title>9</title>
<path fill="none" stroke="#56d8c9" stroke-width="2" d="M324.4,-324C324.4,-324 249.15,-324 249.15,-324 243.15,-324 237.15,-318 237.15,-312 237.15,-312 237.15,-300 237.15,-300 237.15,-294 243.15,-288 249.15,-288 249.15,-288 324.4,-288 324.4,-288 330.4,-288 336.4,-294 336.4,-300 336.4,-300 336.4,-312 336.4,-312 336.4,-318 330.4,-324 324.4,-324"/>
<text text-anchor="middle" x="286.78" y="-302.88" font-family="sans" font-size="10.00">contig_clustering</text>
</g>
<!-- 3&#45;&gt;9 -->
<g id="edge12" class="edge">
<title>3&#45;&gt;9</title>
<path fill="none" stroke="grey" stroke-width="2" d="M214.51,-359.15C225.79,-351.01 239.36,-341.22 251.68,-332.33"/>
<polygon fill="grey" stroke="grey" stroke-width="2" points="254.03,-334.5 260.1,-325.81 249.94,-328.83 254.03,-334.5"/>
</g>
<!-- 4 -->
<g id="node5" class="node">
<title>4</title>
<path fill="none" stroke="#9fd856" stroke-width="2" d="M220.28,-468C220.28,-468 159.28,-468 159.28,-468 153.28,-468 147.28,-462 147.28,-456 147.28,-456 147.28,-444 147.28,-444 147.28,-438 153.28,-432 159.28,-432 159.28,-432 220.28,-432 220.28,-432 226.28,-432 232.28,-438 232.28,-444 232.28,-444 232.28,-456 232.28,-456 232.28,-462 226.28,-468 220.28,-468"/>
<text text-anchor="middle" x="189.78" y="-446.88" font-family="sans" font-size="10.00">host_mapping</text>
</g>
<!-- 4&#45;&gt;3 -->
<g id="edge6" class="edge">
<title>4&#45;&gt;3</title>
<path fill="none" stroke="grey" stroke-width="2" d="M189.78,-431.34C189.78,-424.75 189.78,-417.08 189.78,-409.67"/>
<polygon fill="grey" stroke="grey" stroke-width="2" points="193.28,-409.9 189.78,-399.9 186.28,-409.9 193.28,-409.9"/>
</g>
<!-- 5 -->
<g id="node6" class="node">
<title>5</title>
<path fill="none" stroke="#d8c356" stroke-width="2" d="M223.65,-540C223.65,-540 155.9,-540 155.9,-540 149.9,-540 143.9,-534 143.9,-528 143.9,-528 143.9,-516 143.9,-516 143.9,-510 149.9,-504 155.9,-504 155.9,-504 223.65,-504 223.65,-504 229.65,-504 235.65,-510 235.65,-516 235.65,-516 235.65,-528 235.65,-528 235.65,-534 229.65,-540 223.65,-540"/>
<text text-anchor="middle" x="189.78" y="-525.25" font-family="sans" font-size="10.00">quality_control</text>
<text text-anchor="middle" x="189.78" y="-512.5" font-family="sans" font-size="10.00">sample: prueba</text>
</g>
<!-- 5&#45;&gt;4 -->
<g id="edge7" class="edge">
<title>5&#45;&gt;4</title>
<path fill="none" stroke="grey" stroke-width="2" d="M189.78,-503.34C189.78,-496.75 189.78,-489.08 189.78,-481.67"/>
<polygon fill="grey" stroke="grey" stroke-width="2" points="193.28,-481.9 189.78,-471.9 186.28,-481.9 193.28,-481.9"/>
</g>
<!-- 6&#45;&gt;1 -->
<g id="edge4" class="edge">
<title>6&#45;&gt;1</title>
<path fill="none" stroke="grey" stroke-width="2" d="M58.78,-215.34C58.78,-208.75 58.78,-201.08 58.78,-193.67"/>
<polygon fill="grey" stroke="grey" stroke-width="2" points="62.28,-193.9 58.78,-183.9 55.28,-193.9 62.28,-193.9"/>
</g>
<!-- 7 -->
<g id="node8" class="node">
<title>7</title>
<path fill="none" stroke="#56c9d8" stroke-width="2" d="M272.4,-108C272.4,-108 209.15,-108 209.15,-108 203.15,-108 197.15,-102 197.15,-96 197.15,-96 197.15,-84 197.15,-84 197.15,-78 203.15,-72 209.15,-72 209.15,-72 272.4,-72 272.4,-72 278.4,-72 284.4,-78 284.4,-84 284.4,-84 284.4,-96 284.4,-96 284.4,-102 278.4,-108 272.4,-108"/>
<text text-anchor="middle" x="240.78" y="-86.88" font-family="sans" font-size="10.00">results_cluster</text>
</g>
<!-- 7&#45;&gt;0 -->
<g id="edge2" class="edge">
<title>7&#45;&gt;0</title>
<path fill="none" stroke="grey" stroke-width="2" d="M219.58,-71.34C210.01,-63.36 198.5,-53.77 187.97,-44.99"/>
<polygon fill="grey" stroke="grey" stroke-width="2" points="190.18,-41.61 180.26,-37.9 185.7,-46.99 190.18,-41.61"/>
</g>
<!-- 8 -->
<g id="node9" class="node">
<title>8</title>
<path fill="none" stroke="#d87d56" stroke-width="2" d="M364.28,-252C364.28,-252 285.28,-252 285.28,-252 279.28,-252 273.28,-246 273.28,-240 273.28,-240 273.28,-228 273.28,-228 273.28,-222 279.28,-216 285.28,-216 285.28,-216 364.28,-216 364.28,-216 370.28,-216 376.28,-222 376.28,-228 376.28,-228 376.28,-240 376.28,-240 376.28,-246 370.28,-252 364.28,-252"/>
<text text-anchor="middle" x="324.78" y="-230.88" font-family="sans" font-size="10.00">annotate_clusters</text>
</g>
<!-- 8&#45;&gt;7 -->
<g id="edge9" class="edge">
<title>8&#45;&gt;7</title>
<path fill="none" stroke="grey" stroke-width="2" d="M294.62,-215.01C282.03,-206.01 268.36,-194.04 259.78,-180 249.01,-162.38 244.29,-139.56 242.24,-121.43"/>
<polygon fill="grey" stroke="grey" stroke-width="2" points="245.48,-121.32 241.14,-111.66 238.51,-121.92 245.48,-121.32"/>
</g>
<!-- 10 -->
<g id="node11" class="node">
<title>10</title>
<path fill="none" stroke="#d8a456" stroke-width="2" d="M369.15,-180C369.15,-180 280.4,-180 280.4,-180 274.4,-180 268.4,-174 268.4,-168 268.4,-168 268.4,-156 268.4,-156 268.4,-150 274.4,-144 280.4,-144 280.4,-144 369.15,-144 369.15,-144 375.15,-144 381.15,-150 381.15,-156 381.15,-156 381.15,-168 381.15,-168 381.15,-174 375.15,-180 369.15,-180"/>
<text text-anchor="middle" x="324.78" y="-158.88" font-family="sans" font-size="10.00">virus_mapping_clus</text>
</g>
<!-- 8&#45;&gt;10 -->
<g id="edge13" class="edge">
<title>8&#45;&gt;10</title>
<path fill="none" stroke="grey" stroke-width="2" d="M324.78,-215.34C324.78,-208.75 324.78,-201.08 324.78,-193.67"/>
<polygon fill="grey" stroke="grey" stroke-width="2" points="328.28,-193.9 324.78,-183.9 321.28,-193.9 328.28,-193.9"/>
</g>
<!-- 9&#45;&gt;8 -->
<g id="edge11" class="edge">
<title>9&#45;&gt;8</title>
<path fill="none" stroke="grey" stroke-width="2" d="M296.37,-287.34C300.16,-280.34 304.63,-272.12 308.88,-264.28"/>
<polygon fill="grey" stroke="grey" stroke-width="2" points="312.37,-265.36 314.06,-254.9 306.21,-262.02 312.37,-265.36"/>
</g>
<!-- 10&#45;&gt;7 -->
<g id="edge10" class="edge">
<title>10&#45;&gt;7</title>
<path fill="none" stroke="grey" stroke-width="2" d="M303.58,-143.34C294.01,-135.36 282.5,-125.77 271.97,-116.99"/>
<polygon fill="grey" stroke="grey" stroke-width="2" points="274.18,-113.61 264.26,-109.9 269.7,-118.99 274.18,-113.61"/>
</g>
<!-- 13 -->
<g id="node14" class="node">
<title>13</title>
<path fill="none" stroke="#56d8a2" stroke-width="2" d="M159.78,-108C159.78,-108 129.78,-108 129.78,-108 123.78,-108 117.78,-102 117.78,-96 117.78,-96 117.78,-84 117.78,-84 117.78,-78 123.78,-72 129.78,-72 129.78,-72 159.78,-72 159.78,-72 165.78,-72 171.78,-78 171.78,-84 171.78,-84 171.78,-96 171.78,-96 171.78,-102 165.78,-108 159.78,-108"/>
<text text-anchor="middle" x="144.78" y="-86.88" font-family="sans" font-size="10.00">plot_int</text>
</g>
<!-- 11&#45;&gt;13 -->
<g id="edge17" class="edge">
<title>11&#45;&gt;13</title>
<path fill="none" stroke="grey" stroke-width="2" d="M144.78,-143.34C144.78,-136.75 144.78,-129.08 144.78,-121.67"/>
<polygon fill="grey" stroke="grey" stroke-width="2" points="148.28,-121.9 144.78,-111.9 141.28,-121.9 148.28,-121.9"/>
</g>
<!-- 12&#45;&gt;11 -->
<g id="edge15" class="edge">
<title>12&#45;&gt;11</title>
<path fill="none" stroke="grey" stroke-width="2" d="M191.13,-215.34C184.5,-207.85 176.62,-198.95 169.25,-190.63"/>
<polygon fill="grey" stroke="grey" stroke-width="2" points="171.88,-188.07 162.63,-182.9 166.64,-192.71 171.88,-188.07"/>
</g>
</g>
</svg>
